<svg width="16" height="16" viewBox="0 0 16 16" fill="none" xmlns="http://www.w3.org/2000/svg">
<path fill-rule="evenodd" clip-rule="evenodd" d="M9.29289 1.70711C8.90237 1.31658 8.90237 0.683417 9.29289 0.292893C9.68342 -0.0976311 10.3166 -0.0976311 10.7071 0.292893L15.7071 5.29289C16.0976 5.68342 16.0976 6.31658 15.7071 6.70711L10.7071 11.7071C10.3166 12.0976 9.68342 12.0976 9.29289 11.7071C8.90237 11.3166 8.90237 10.6834 9.29289 10.2929L12.6008 6.98504C11.7265 6.97151 10.8295 6.95923 9.90234 6.9991C8.49478 7.05964 7.14852 7.23973 5.98099 7.6845C4.83171 8.12231 3.86593 8.81173 3.17385 9.90861C2.47434 11.0173 2 12.6289 2 15C2 15.5523 1.55229 16 1 16C0.447715 16 0 15.5523 0 15C0 12.3711 0.525656 10.3577 1.4824 8.84138C2.44657 7.31326 3.79329 6.37769 5.26901 5.81552C6.72648 5.2603 8.31772 5.06541 9.81641 5.00095C10.7492 4.96083 11.6981 4.97099 12.5697 4.98394L9.29289 1.70711Z" fill="white"/>
</svg>
