<svg width="16" height="16" viewBox="0 0 16 16" fill="none" xmlns="http://www.w3.org/2000/svg">
<path d="M1 11L3 4L6 15L8 1L10.5 8L13 3L15 8" stroke="white" stroke-width="2" stroke-linecap="round" stroke-linejoin="round"/>
<path fill-rule="evenodd" clip-rule="evenodd" d="M12 15C12 15.5523 12.4477 16 13 16C13.5523 16 14 15.5523 14 15V14H15C15.5523 14 16 13.5523 16 13C16 12.4477 15.5523 12 15 12H14V11C14 10.4477 13.5523 10 13 10C12.4477 10 12 10.4477 12 11V12H11C10.4477 12 10 12.4477 10 13C10 13.5523 10.4477 14 11 14H12V15Z" fill="white"/>
</svg>
