<?xml version="1.0" encoding="UTF-8" standalone="no"?>
<!DOCTYPE svg PUBLIC "-//W3C//DTD SVG 1.1//EN" "http://www.w3.org/Graphics/SVG/1.1/DTD/svg11.dtd">
<svg width="100%" height="100%" viewBox="0 0 19 12" version="1.1" xmlns="http://www.w3.org/2000/svg" xmlns:xlink="http://www.w3.org/1999/xlink" xml:space="preserve" xmlns:serif="http://www.serif.com/" style="fill-rule:evenodd;clip-rule:evenodd;stroke-linejoin:round;stroke-miterlimit:2;">
    <g transform="matrix(1,0,0,1,-1013,-89)">
        <g transform="matrix(0.99496,0,0,1.01353,584.929,21.2706)">
            <g transform="matrix(1,0,0,0.970874,-411.072,-55.835)">
                <g transform="matrix(0.861351,0.876744,-1.46971,1.47622,924.224,-276.718)">
                    <path d="M191.012,162.692L191,165.339L190.014,165.296L190.027,162.649C190.355,162.704 190.684,162.638 191.012,162.692Z" style="fill:white;fill-rule:nonzero;"/>
                </g>
                <g transform="matrix(1.67511,0,0,1.69375,525.552,-141.611)">
                    <path d="M189.7,163C190.362,163 190.9,163.538 190.9,164.2C190.9,164.862 190.362,165.4 189.7,165.4C189.038,165.4 188.5,164.862 188.5,164.2C188.5,163.538 189.038,163 189.7,163ZM189.7,163.6C190.031,163.6 190.3,163.869 190.3,164.2C190.3,164.531 190.031,164.8 189.7,164.8C189.369,164.8 189.1,164.531 189.1,164.2C189.1,163.869 189.369,163.6 189.7,163.6Z" style="fill:white;"/>
                </g>
                <g transform="matrix(1.67511,0,0,1.69375,533.593,-149.741)">
                    <path d="M189.7,163C190.362,163 190.9,163.538 190.9,164.2C190.9,164.862 190.362,165.4 189.7,165.4C189.038,165.4 188.5,164.862 188.5,164.2C188.5,163.538 189.038,163 189.7,163ZM189.7,163.6C190.031,163.6 190.3,163.869 190.3,164.2C190.3,164.531 190.031,164.8 189.7,164.8C189.369,164.8 189.1,164.531 189.1,164.2C189.1,163.869 189.369,163.6 189.7,163.6Z" style="fill:white;"/>
                </g>
            </g>
        </g>
        <g transform="matrix(0.99496,0,0,1.01353,584.929,21.2706)">
            <g transform="matrix(1.00507,0,0,0.98665,159.876,-28.8798)">
                <path d="M283,103L285,103L285,101L286,101L286,103L288,103L288,104L286,104L286,106L285,106L285,104L283,104L283,103Z" style="fill:white;"/>
            </g>
        </g>
    </g>
</svg>
