<?xml version="1.0" encoding="UTF-8" standalone="no"?>
<!DOCTYPE svg PUBLIC "-//W3C//DTD SVG 1.1//EN" "http://www.w3.org/Graphics/SVG/1.1/DTD/svg11.dtd">
<svg width="100%" height="100%" viewBox="0 0 19 12" version="1.1" xmlns="http://www.w3.org/2000/svg" xmlns:xlink="http://www.w3.org/1999/xlink" xml:space="preserve" xmlns:serif="http://www.serif.com/" style="fill-rule:evenodd;clip-rule:evenodd;stroke-linejoin:round;stroke-miterlimit:2;">
    <g transform="matrix(1,0,0,1,-984,-89)">
        <g transform="matrix(0.99496,0,0,1.01353,584.929,21.2706)">
            <g transform="matrix(1.00507,0,0,0.98665,130.729,-28.8798)">
                <path d="M283,103L285,103L285,101L286,101L286,103L288,103L288,104L286,104L286,106L285,106L285,104L283,104L283,103Z" style="fill:white;"/>
            </g>
        </g>
        <g transform="matrix(0.99496,0,0,1.01353,584.929,21.2706)">
            <g transform="matrix(1,0,0,0.970874,-405.041,-55.835)">
                <g transform="matrix(1.00507,0,0,1.01625,570.948,-30.0609)">
                    <rect x="236" y="158.9" width="1" height="4" style="fill:white;"/>
                </g>
                <g transform="matrix(1.00507,0,0,1.01625,570.948,-30.0609)">
                    <rect x="238" y="155.9" width="1" height="5" style="fill:white;"/>
                </g>
                <g transform="matrix(1.00507,0,0,1.30826,570.948,-77.1968)">
                    <rect x="240" y="158.9" width="1" height="6" style="fill:white;"/>
                </g>
                <g transform="matrix(1.00507,0,0,1.01625,570.948,-30.0609)">
                    <rect x="242" y="153.9" width="1" height="7" style="fill:white;"/>
                </g>
                <g transform="matrix(1.00507,0,0,1.01625,570.948,-29.0446)">
                    <rect x="244" y="158.9" width="1" height="3" style="fill:white;"/>
                </g>
                <g transform="matrix(1.00507,0,0,1.01625,570.948,-30.0609)">
                    <rect x="234" y="156.9" width="1" height="2" style="fill:white;"/>
                </g>
            </g>
        </g>
    </g>
</svg>
