<?xml version="1.0" encoding="UTF-8" standalone="no"?>
<!DOCTYPE svg PUBLIC "-//W3C//DTD SVG 1.1//EN" "http://www.w3.org/Graphics/SVG/1.1/DTD/svg11.dtd">
<svg width="100%" height="100%" viewBox="0 0 15 15" version="1.1" xmlns="http://www.w3.org/2000/svg" xmlns:xlink="http://www.w3.org/1999/xlink" xml:space="preserve" xmlns:serif="http://www.serif.com/" style="fill-rule:evenodd;clip-rule:evenodd;stroke-linejoin:round;stroke-miterlimit:2;">
    <g transform="matrix(1,0,0,1,-888,-800)">
        <g transform="matrix(0.99496,0,0,1.01353,584.929,21.2706)">
            <g transform="matrix(1,0,0,0.970874,-530.674,646.66)">
                <g transform="matrix(0.861351,0.876744,-2.61823,2.62983,1108.09,-465.423)">
                    <path d="M191.012,162.692L191,165.339L190.014,165.296L190.027,162.649C190.355,162.704 190.684,162.638 191.012,162.692Z" style="fill:white;fill-rule:nonzero;"/>
                </g>
                <g transform="matrix(1.67511,0,0,1.69375,519.522,-139.579)">
                    <path d="M189.731,163L189.762,163.002L189.792,163.004L189.823,163.006L189.853,163.01L189.883,163.014L189.912,163.019L189.942,163.024L189.971,163.031L190,163.038L190.028,163.046L190.057,163.054L190.085,163.063L190.112,163.073L190.14,163.083L190.167,163.094L190.194,163.106L190.22,163.118L190.246,163.131L190.272,163.145L190.297,163.159L190.322,163.174L190.347,163.189L190.371,163.205L190.394,163.222L190.418,163.239L190.441,163.256L190.463,163.274L190.485,163.293L190.507,163.312L190.528,163.332L190.548,163.352L190.568,163.372L190.588,163.393L190.607,163.415L190.626,163.437L190.644,163.459L190.661,163.482L190.678,163.506L190.695,163.529L190.711,163.553L190.726,163.578L190.741,163.603L190.755,163.628L190.769,163.654L190.782,163.68L190.794,163.706L190.806,163.733L190.817,163.76L190.827,163.788L190.837,163.815L190.846,163.843L190.854,163.872L190.862,163.9L190.869,163.929L190.876,163.958L190.881,163.988L190.886,164.017L190.89,164.047L190.894,164.077L190.896,164.108L190.898,164.138L190.9,164.169L190.9,164.2L190.9,164.231L190.898,164.262L190.896,164.292L190.894,164.323L190.89,164.353L190.886,164.383L190.881,164.412L190.876,164.442L190.869,164.471L190.862,164.5L190.854,164.528L190.846,164.557L190.837,164.585L190.827,164.612L190.817,164.64L190.806,164.667L190.794,164.694L190.782,164.72L190.769,164.746L190.755,164.772L190.741,164.797L190.726,164.822L190.711,164.847L190.695,164.871L190.678,164.894L190.661,164.918L190.644,164.941L190.626,164.963L190.607,164.985L190.588,165.007L190.568,165.028L190.548,165.048L190.528,165.068L190.507,165.088L190.485,165.107L190.463,165.126L190.441,165.144L190.418,165.161L190.394,165.178L190.371,165.195L190.347,165.211L190.322,165.226L190.297,165.241L190.272,165.255L190.246,165.269L190.22,165.282L190.194,165.294L190.167,165.306L190.14,165.317L190.112,165.327L190.085,165.337L190.057,165.346L190.028,165.354L190,165.362L189.971,165.369L189.942,165.376L189.912,165.381L189.883,165.386L189.853,165.39L189.823,165.394L189.792,165.396L189.762,165.398L189.731,165.4L189.7,165.4L189.669,165.4L189.638,165.398L189.608,165.396L189.577,165.394L189.547,165.39L189.517,165.386L189.488,165.381L189.458,165.376L189.429,165.369L189.4,165.362L189.372,165.354L189.343,165.346L189.315,165.337L189.288,165.327L189.26,165.317L189.233,165.306L189.206,165.294L189.18,165.282L189.154,165.269L189.128,165.255L189.103,165.241L189.078,165.226L189.053,165.211L189.029,165.195L189.006,165.178L188.982,165.161L188.959,165.144L188.937,165.126L188.915,165.107L188.893,165.088L188.872,165.068L188.852,165.048L188.832,165.028L188.812,165.007L188.793,164.985L188.774,164.963L188.756,164.941L188.739,164.918L188.722,164.894L188.705,164.871L188.689,164.847L188.674,164.822L188.659,164.797L188.645,164.772L188.631,164.746L188.618,164.72L188.606,164.694L188.594,164.667L188.583,164.64L188.573,164.612L188.563,164.585L188.554,164.557L188.546,164.528L188.538,164.5L188.531,164.471L188.524,164.442L188.519,164.412L188.514,164.383L188.51,164.353L188.506,164.323L188.504,164.292L188.502,164.262L188.5,164.231L188.5,164.2L188.5,164.169L188.502,164.138L188.504,164.108L188.506,164.077L188.51,164.047L188.514,164.017L188.519,163.988L188.524,163.958L188.531,163.929L188.538,163.9L188.546,163.872L188.554,163.843L188.563,163.815L188.573,163.788L188.583,163.76L188.594,163.733L188.606,163.706L188.618,163.68L188.631,163.654L188.645,163.628L188.659,163.603L188.674,163.578L188.689,163.553L188.705,163.529L188.722,163.506L188.739,163.482L188.756,163.459L188.774,163.437L188.793,163.415L188.812,163.393L188.832,163.372L188.852,163.352L188.872,163.332L188.893,163.312L188.915,163.293L188.937,163.274L188.959,163.256L188.982,163.239L189.006,163.222L189.029,163.205L189.053,163.189L189.078,163.174L189.103,163.159L189.128,163.145L189.154,163.131L189.18,163.118L189.206,163.106L189.233,163.094L189.26,163.083L189.288,163.073L189.315,163.063L189.343,163.054L189.372,163.046L189.4,163.038L189.429,163.031L189.458,163.024L189.488,163.019L189.517,163.014L189.547,163.01L189.577,163.006L189.608,163.004L189.638,163.002L189.669,163L189.7,163L189.731,163ZM189.684,163.6L189.669,163.601L189.653,163.602L189.638,163.603L189.623,163.605L189.608,163.607L189.593,163.609L189.579,163.612L189.564,163.615L189.55,163.619L189.536,163.623L189.522,163.627L189.508,163.631L189.494,163.636L189.481,163.641L189.467,163.647L189.454,163.653L189.441,163.659L189.427,163.665L189.414,163.672L189.402,163.679L189.39,163.687L189.377,163.694L189.365,163.702L189.353,163.71L189.342,163.719L189.33,163.728L189.319,163.737L189.308,163.746L189.297,163.756L189.286,163.766L189.276,163.776L189.266,163.786L189.256,163.797L189.246,163.808L189.237,163.819L189.228,163.83L189.219,163.842L189.21,163.853L189.202,163.865L189.194,163.878L189.187,163.89L189.179,163.902L189.172,163.915L189.165,163.928L189.159,163.941L189.153,163.954L189.147,163.967L189.141,163.98L189.136,163.994L189.131,164.008L189.127,164.022L189.123,164.036L189.119,164.05L189.115,164.064L189.112,164.079L189.109,164.093L189.107,164.108L189.105,164.123L189.103,164.138L189.102,164.154L189.101,164.169L189.1,164.184L189.1,164.2L189.1,164.216L189.101,164.231L189.102,164.246L189.103,164.262L189.105,164.277L189.107,164.292L189.109,164.307L189.112,164.321L189.115,164.336L189.119,164.35L189.123,164.364L189.127,164.379L189.131,164.392L189.136,164.406L189.141,164.42L189.147,164.433L189.153,164.446L189.159,164.459L189.165,164.472L189.172,164.485L189.179,164.498L189.187,164.51L189.194,164.522L189.202,164.535L189.21,164.547L189.219,164.558L189.228,164.57L189.237,164.581L189.246,164.592L189.256,164.603L189.266,164.614L189.276,164.624L189.286,164.634L189.297,164.644L189.308,164.654L189.319,164.663L189.33,164.672L189.342,164.681L189.353,164.69L189.365,164.698L189.377,164.706L189.39,164.713L189.402,164.721L189.414,164.728L189.427,164.735L189.441,164.741L189.454,164.747L189.467,164.753L189.48,164.758L189.494,164.764L189.508,164.769L189.522,164.773L189.536,164.777L189.55,164.781L189.564,164.785L189.579,164.788L189.593,164.791L189.608,164.793L189.623,164.795L189.638,164.797L189.653,164.798L189.669,164.799L189.684,164.8L189.7,164.8L189.716,164.8L189.731,164.799L189.747,164.798L189.762,164.797L189.777,164.795L189.792,164.793L189.807,164.791L189.821,164.788L189.836,164.785L189.85,164.781L189.864,164.777L189.878,164.773L189.892,164.769L189.906,164.764L189.92,164.758L189.933,164.753L189.946,164.747L189.959,164.741L189.972,164.735L189.985,164.728L189.998,164.721L190.011,164.713L190.022,164.706L190.035,164.698L190.047,164.69L190.058,164.681L190.07,164.672L190.081,164.663L190.092,164.654L190.103,164.644L190.114,164.634L190.124,164.624L190.134,164.614L190.144,164.603L190.154,164.592L190.163,164.581L190.172,164.57L190.181,164.558L190.19,164.547L190.198,164.534L190.206,164.523L190.213,164.51L190.221,164.498L190.228,164.485L190.235,164.472L190.241,164.46L190.247,164.446L190.253,164.433L190.258,164.42L190.264,164.406L190.268,164.393L190.273,164.379L190.277,164.364L190.281,164.35L190.285,164.336L190.288,164.321L190.291,164.307L190.293,164.292L190.295,164.277L190.297,164.262L190.298,164.247L190.299,164.231L190.3,164.216L190.3,164.2L190.3,164.184L190.299,164.169L190.298,164.153L190.297,164.138L190.295,164.123L190.293,164.108L190.291,164.093L190.288,164.079L190.285,164.064L190.281,164.05L190.277,164.036L190.273,164.022L190.268,164.007L190.264,163.994L190.258,163.98L190.253,163.967L190.247,163.954L190.241,163.94L190.235,163.928L190.228,163.915L190.221,163.902L190.213,163.89L190.206,163.877L190.198,163.866L190.19,163.853L190.181,163.842L190.172,163.83L190.163,163.819L190.154,163.808L190.144,163.797L190.134,163.786L190.124,163.776L190.114,163.766L190.103,163.756L190.092,163.746L190.081,163.737L190.07,163.728L190.058,163.719L190.047,163.71L190.035,163.702L190.022,163.694L190.011,163.687L189.998,163.679L189.985,163.672L189.972,163.665L189.959,163.659L189.946,163.653L189.933,163.647L189.919,163.641L189.906,163.636L189.892,163.631L189.878,163.627L189.864,163.623L189.85,163.619L189.836,163.615L189.821,163.612L189.807,163.609L189.792,163.607L189.777,163.605L189.762,163.603L189.747,163.602L189.731,163.601L189.716,163.6L189.7,163.6L189.684,163.6Z" style="fill:white;"/>
                </g>
                <g transform="matrix(1.67511,0,0,1.69375,530.578,-150.757)">
                    <path d="M189.731,163L189.762,163.002L189.792,163.004L189.823,163.006L189.853,163.01L189.883,163.014L189.912,163.019L189.942,163.024L189.971,163.031L190,163.038L190.028,163.046L190.057,163.054L190.085,163.063L190.112,163.073L190.14,163.083L190.167,163.094L190.194,163.106L190.22,163.118L190.246,163.131L190.272,163.145L190.297,163.159L190.322,163.174L190.347,163.189L190.371,163.205L190.394,163.222L190.418,163.239L190.441,163.256L190.463,163.274L190.485,163.293L190.507,163.312L190.528,163.332L190.548,163.352L190.568,163.372L190.588,163.393L190.607,163.415L190.626,163.437L190.644,163.459L190.661,163.482L190.678,163.506L190.695,163.529L190.711,163.553L190.726,163.578L190.741,163.603L190.755,163.628L190.769,163.654L190.782,163.68L190.794,163.706L190.806,163.733L190.817,163.76L190.827,163.788L190.837,163.815L190.846,163.843L190.854,163.872L190.862,163.9L190.869,163.929L190.876,163.958L190.881,163.988L190.886,164.017L190.89,164.047L190.894,164.077L190.896,164.108L190.898,164.138L190.9,164.169L190.9,164.2L190.9,164.231L190.898,164.262L190.896,164.292L190.894,164.323L190.89,164.353L190.886,164.383L190.881,164.412L190.876,164.442L190.869,164.471L190.862,164.5L190.854,164.528L190.846,164.557L190.837,164.585L190.827,164.612L190.817,164.64L190.806,164.667L190.794,164.694L190.782,164.72L190.769,164.746L190.755,164.772L190.741,164.797L190.726,164.822L190.711,164.847L190.695,164.871L190.678,164.894L190.661,164.918L190.644,164.941L190.626,164.963L190.607,164.985L190.588,165.007L190.568,165.028L190.548,165.048L190.528,165.068L190.507,165.088L190.485,165.107L190.463,165.126L190.441,165.144L190.418,165.161L190.394,165.178L190.371,165.195L190.347,165.211L190.322,165.226L190.297,165.241L190.272,165.255L190.246,165.269L190.22,165.282L190.194,165.294L190.167,165.306L190.14,165.317L190.112,165.327L190.085,165.337L190.057,165.346L190.028,165.354L190,165.362L189.971,165.369L189.942,165.376L189.912,165.381L189.883,165.386L189.853,165.39L189.823,165.394L189.792,165.396L189.762,165.398L189.731,165.4L189.7,165.4L189.669,165.4L189.638,165.398L189.608,165.396L189.577,165.394L189.547,165.39L189.517,165.386L189.488,165.381L189.458,165.376L189.429,165.369L189.4,165.362L189.372,165.354L189.343,165.346L189.315,165.337L189.288,165.327L189.26,165.317L189.233,165.306L189.206,165.294L189.18,165.282L189.154,165.269L189.128,165.255L189.103,165.241L189.078,165.226L189.053,165.211L189.029,165.195L189.006,165.178L188.982,165.161L188.959,165.144L188.937,165.126L188.915,165.107L188.893,165.088L188.872,165.068L188.852,165.048L188.832,165.028L188.812,165.007L188.793,164.985L188.774,164.963L188.756,164.941L188.739,164.918L188.722,164.894L188.705,164.871L188.689,164.847L188.674,164.822L188.659,164.797L188.645,164.772L188.631,164.746L188.618,164.72L188.606,164.694L188.594,164.667L188.583,164.64L188.573,164.612L188.563,164.585L188.554,164.557L188.546,164.528L188.538,164.5L188.531,164.471L188.524,164.442L188.519,164.412L188.514,164.383L188.51,164.353L188.506,164.323L188.504,164.292L188.502,164.262L188.5,164.231L188.5,164.2L188.5,164.169L188.502,164.138L188.504,164.108L188.506,164.077L188.51,164.047L188.514,164.017L188.519,163.988L188.524,163.958L188.531,163.929L188.538,163.9L188.546,163.872L188.554,163.843L188.563,163.815L188.573,163.788L188.583,163.76L188.594,163.733L188.606,163.706L188.618,163.68L188.631,163.654L188.645,163.628L188.659,163.603L188.674,163.578L188.689,163.553L188.705,163.529L188.722,163.506L188.739,163.482L188.756,163.459L188.774,163.437L188.793,163.415L188.812,163.393L188.832,163.372L188.852,163.352L188.872,163.332L188.893,163.312L188.915,163.293L188.937,163.274L188.959,163.256L188.982,163.239L189.006,163.222L189.029,163.205L189.053,163.189L189.078,163.174L189.103,163.159L189.128,163.145L189.154,163.131L189.18,163.118L189.206,163.106L189.233,163.094L189.26,163.083L189.288,163.073L189.315,163.063L189.343,163.054L189.372,163.046L189.4,163.038L189.429,163.031L189.458,163.024L189.488,163.019L189.517,163.014L189.547,163.01L189.577,163.006L189.608,163.004L189.638,163.002L189.669,163L189.7,163L189.731,163ZM189.684,163.6L189.669,163.601L189.653,163.602L189.638,163.603L189.623,163.605L189.608,163.607L189.593,163.609L189.579,163.612L189.564,163.615L189.55,163.619L189.536,163.623L189.522,163.627L189.508,163.631L189.494,163.636L189.481,163.641L189.467,163.647L189.454,163.653L189.441,163.659L189.427,163.665L189.414,163.672L189.402,163.679L189.39,163.687L189.377,163.694L189.365,163.702L189.353,163.71L189.342,163.719L189.33,163.728L189.319,163.737L189.308,163.746L189.297,163.756L189.286,163.766L189.276,163.776L189.266,163.786L189.256,163.797L189.246,163.808L189.237,163.819L189.228,163.83L189.219,163.842L189.21,163.853L189.202,163.865L189.194,163.878L189.187,163.89L189.179,163.902L189.172,163.915L189.165,163.928L189.159,163.941L189.153,163.954L189.147,163.967L189.141,163.98L189.136,163.994L189.131,164.008L189.127,164.022L189.123,164.036L189.119,164.05L189.115,164.064L189.112,164.079L189.109,164.093L189.107,164.108L189.105,164.123L189.103,164.138L189.102,164.154L189.101,164.169L189.1,164.184L189.1,164.2L189.1,164.216L189.101,164.231L189.102,164.246L189.103,164.262L189.105,164.277L189.107,164.292L189.109,164.307L189.112,164.321L189.115,164.336L189.119,164.35L189.123,164.364L189.127,164.379L189.131,164.392L189.136,164.406L189.141,164.42L189.147,164.433L189.153,164.446L189.159,164.459L189.165,164.472L189.172,164.485L189.179,164.498L189.187,164.51L189.194,164.522L189.202,164.535L189.21,164.547L189.219,164.558L189.228,164.57L189.237,164.581L189.246,164.592L189.256,164.603L189.266,164.614L189.276,164.624L189.286,164.634L189.297,164.644L189.308,164.654L189.319,164.663L189.33,164.672L189.342,164.681L189.353,164.69L189.365,164.698L189.377,164.706L189.39,164.713L189.402,164.721L189.414,164.728L189.427,164.735L189.441,164.741L189.454,164.747L189.467,164.753L189.48,164.758L189.494,164.764L189.508,164.769L189.522,164.773L189.536,164.777L189.55,164.781L189.564,164.785L189.579,164.788L189.593,164.791L189.608,164.793L189.623,164.795L189.638,164.797L189.653,164.798L189.669,164.799L189.684,164.8L189.7,164.8L189.716,164.8L189.731,164.799L189.747,164.798L189.762,164.797L189.777,164.795L189.792,164.793L189.807,164.791L189.821,164.788L189.836,164.785L189.85,164.781L189.864,164.777L189.878,164.773L189.892,164.769L189.906,164.764L189.92,164.758L189.933,164.753L189.946,164.747L189.959,164.741L189.972,164.735L189.985,164.728L189.998,164.721L190.011,164.713L190.022,164.706L190.035,164.698L190.047,164.69L190.058,164.681L190.07,164.672L190.081,164.663L190.092,164.654L190.103,164.644L190.114,164.634L190.124,164.624L190.134,164.614L190.144,164.603L190.154,164.592L190.163,164.581L190.172,164.57L190.181,164.558L190.19,164.547L190.198,164.534L190.206,164.523L190.213,164.51L190.221,164.498L190.228,164.485L190.235,164.472L190.241,164.46L190.247,164.446L190.253,164.433L190.258,164.42L190.264,164.406L190.268,164.393L190.273,164.379L190.277,164.364L190.281,164.35L190.285,164.336L190.288,164.321L190.291,164.307L190.293,164.292L190.295,164.277L190.297,164.262L190.298,164.247L190.299,164.231L190.3,164.216L190.3,164.2L190.3,164.184L190.299,164.169L190.298,164.153L190.297,164.138L190.295,164.123L190.293,164.108L190.291,164.093L190.288,164.079L190.285,164.064L190.281,164.05L190.277,164.036L190.273,164.022L190.268,164.007L190.264,163.994L190.258,163.98L190.253,163.967L190.247,163.954L190.241,163.94L190.235,163.928L190.228,163.915L190.221,163.902L190.213,163.89L190.206,163.877L190.198,163.866L190.19,163.853L190.181,163.842L190.172,163.83L190.163,163.819L190.154,163.808L190.144,163.797L190.134,163.786L190.124,163.776L190.114,163.766L190.103,163.756L190.092,163.746L190.081,163.737L190.07,163.728L190.058,163.719L190.047,163.71L190.035,163.702L190.022,163.694L190.011,163.687L189.998,163.679L189.985,163.672L189.972,163.665L189.959,163.659L189.946,163.653L189.933,163.647L189.919,163.641L189.906,163.636L189.892,163.631L189.878,163.627L189.864,163.623L189.85,163.619L189.836,163.615L189.821,163.612L189.807,163.609L189.792,163.607L189.777,163.605L189.762,163.603L189.747,163.602L189.731,163.601L189.716,163.6L189.7,163.6L189.684,163.6Z" style="fill:white;"/>
                </g>
            </g>
        </g>
    </g>
</svg>
