<?xml version="1.0" encoding="UTF-8" standalone="no"?>
<!DOCTYPE svg PUBLIC "-//W3C//DTD SVG 1.1//EN" "http://www.w3.org/Graphics/SVG/1.1/DTD/svg11.dtd">
<svg width="100%" height="100%" viewBox="0 0 8 8" version="1.1" xmlns="http://www.w3.org/2000/svg" xmlns:xlink="http://www.w3.org/1999/xlink" xml:space="preserve" xmlns:serif="http://www.serif.com/" style="fill-rule:evenodd;clip-rule:evenodd;stroke-linejoin:round;stroke-miterlimit:2;">
    <g transform="matrix(1,0,0,1,-1930,-12)">
        <g transform="matrix(0.99496,0,0,1.01353,584.929,21.2706)">
            <g transform="matrix(1.00507,0,0,0.98665,-3384.99,-335.728)">
                <path d="M4720.52,331.001L4720.55,331.002L4720.57,331.005L4720.59,331.009L4720.62,331.014L4720.64,331.021L4720.66,331.028L4720.69,331.037L4720.71,331.046L4720.73,331.057L4720.75,331.069L4720.77,331.082L4720.8,331.097L4720.82,331.112L4720.83,331.129L4720.85,331.146L4720.87,331.165L4720.89,331.184L4720.9,331.204L4720.92,331.225L4720.93,331.246L4720.94,331.267L4720.95,331.289L4720.96,331.312L4720.97,331.334L4720.98,331.358L4720.98,331.381L4720.99,331.404L4720.99,331.428L4721,331.452L4721,331.476L4721,331.5L4721,331.524L4721,331.548L4720.99,331.572L4720.99,331.595L4720.98,331.619L4720.98,331.642L4720.97,331.665L4720.96,331.688L4720.95,331.71L4720.94,331.732L4720.93,331.754L4720.92,331.775L4720.9,331.796L4720.89,331.816L4720.87,331.835L4720.85,331.853L4717.71,334.999L4720.85,338.145L4720.87,338.164L4720.89,338.183L4720.9,338.203L4720.92,338.224L4720.93,338.245L4720.94,338.266L4720.95,338.288L4720.96,338.311L4720.97,338.334L4720.98,338.357L4720.98,338.38L4720.99,338.403L4720.99,338.427L4721,338.451L4721,338.475L4721,338.499L4721,338.523L4721,338.547L4720.99,338.571L4720.99,338.594L4720.98,338.618L4720.98,338.641L4720.97,338.664L4720.96,338.687L4720.95,338.71L4720.94,338.732L4720.93,338.753L4720.92,338.774L4720.9,338.795L4720.89,338.815L4720.87,338.834L4720.85,338.852L4720.83,338.87L4720.82,338.887L4720.8,338.902L4720.77,338.917L4720.75,338.93L4720.73,338.942L4720.71,338.953L4720.69,338.962L4720.66,338.971L4720.64,338.978L4720.62,338.985L4720.59,338.99L4720.57,338.994L4720.55,338.997L4720.52,338.998L4720.5,338.999L4720.48,338.998L4720.45,338.997L4720.43,338.994L4720.4,338.99L4720.38,338.985L4720.36,338.978L4720.33,338.971L4720.31,338.962L4720.29,338.953L4720.27,338.942L4720.24,338.93L4720.22,338.917L4720.2,338.902L4720.18,338.887L4720.16,338.87L4720.15,338.852L4717,335.707L4713.85,338.852L4713.84,338.87L4713.82,338.887L4713.8,338.902L4713.78,338.917L4713.75,338.93L4713.73,338.942L4713.71,338.953L4713.69,338.962L4713.66,338.971L4713.64,338.978L4713.62,338.985L4713.6,338.99L4713.57,338.994L4713.55,338.997L4713.52,338.998L4713.5,338.999L4713.48,338.998L4713.45,338.997L4713.43,338.994L4713.4,338.99L4713.38,338.985L4713.36,338.978L4713.33,338.971L4713.31,338.962L4713.29,338.953L4713.27,338.942L4713.25,338.93L4713.23,338.917L4713.2,338.902L4713.18,338.887L4713.16,338.87L4713.15,338.852L4713.13,338.834L4713.11,338.815L4713.1,338.795L4713.08,338.774L4713.07,338.753L4713.06,338.732L4713.05,338.71L4713.04,338.687L4713.03,338.664L4713.02,338.641L4713.01,338.618L4713.01,338.594L4713.01,338.571L4713,338.547L4713,338.523L4713,338.499L4713,338.475L4713,338.451L4713.01,338.427L4713.01,338.403L4713.01,338.38L4713.02,338.357L4713.03,338.334L4713.04,338.311L4713.05,338.288L4713.06,338.266L4713.07,338.245L4713.08,338.224L4713.1,338.203L4713.11,338.183L4713.13,338.164L4713.15,338.145L4716.29,334.999L4713.15,331.853L4713.13,331.835L4713.11,331.816L4713.1,331.796L4713.08,331.775L4713.07,331.754L4713.06,331.732L4713.05,331.71L4713.04,331.688L4713.03,331.665L4713.02,331.642L4713.01,331.619L4713.01,331.595L4713.01,331.572L4713,331.548L4713,331.524L4713,331.5L4713,331.476L4713,331.452L4713.01,331.428L4713.01,331.404L4713.01,331.381L4713.02,331.358L4713.03,331.334L4713.04,331.312L4713.05,331.289L4713.06,331.267L4713.07,331.246L4713.08,331.225L4713.1,331.204L4713.11,331.184L4713.13,331.165L4713.15,331.146L4713.16,331.129L4713.18,331.112L4713.2,331.097L4713.23,331.082L4713.25,331.069L4713.27,331.057L4713.29,331.046L4713.31,331.037L4713.33,331.028L4713.36,331.021L4713.38,331.014L4713.4,331.009L4713.43,331.005L4713.45,331.002L4713.48,331.001L4713.5,331L4713.52,331.001L4713.55,331.002L4713.57,331.005L4713.6,331.009L4713.62,331.014L4713.64,331.021L4713.66,331.028L4713.69,331.037L4713.71,331.046L4713.73,331.057L4713.75,331.069L4713.78,331.082L4713.8,331.097L4713.82,331.112L4713.84,331.129L4713.85,331.146L4717,334.292L4720.15,331.146L4720.16,331.129L4720.18,331.112L4720.2,331.097L4720.22,331.082L4720.24,331.069L4720.27,331.057L4720.29,331.046L4720.31,331.037L4720.33,331.028L4720.36,331.021L4720.38,331.014L4720.4,331.009L4720.43,331.005L4720.45,331.002L4720.48,331.001L4720.5,331L4720.52,331.001Z" style="fill:white;"/>
            </g>
        </g>
    </g>
</svg>
