<?xml version="1.0" encoding="UTF-8" standalone="no"?>
<!DOCTYPE svg PUBLIC "-//W3C//DTD SVG 1.1//EN" "http://www.w3.org/Graphics/SVG/1.1/DTD/svg11.dtd">
<svg width="100%" height="100%" viewBox="0 0 15 15" version="1.1" xmlns="http://www.w3.org/2000/svg" xmlns:xlink="http://www.w3.org/1999/xlink" xml:space="preserve" xmlns:serif="http://www.serif.com/" style="fill-rule:evenodd;clip-rule:evenodd;stroke-linejoin:round;stroke-miterlimit:2;">
    <g transform="matrix(1,0,0,1,-1917.97,-800)">
        <g transform="matrix(0.99496,0,0,1.01353,584.929,21.2706)">
            <g transform="matrix(-1,-1.20221e-16,1.2475e-16,-1,1745.91,1551.46)">
                <g transform="matrix(0.603039,0,0,0.59199,-196.319,295.333)">
                    <path d="M981.307,813.998L981.114,813.99L980.923,813.978L980.734,813.961L980.545,813.94L980.358,813.914L980.173,813.883L979.989,813.848L979.807,813.808L979.627,813.764L979.448,813.715L979.271,813.663L979.096,813.606L978.922,813.545L978.751,813.479L978.582,813.41L978.415,813.337L978.25,813.26L978.087,813.179L977.926,813.094L977.768,813.006L977.612,812.914L977.459,812.818L977.308,812.718L977.16,812.616L977.014,812.509L976.871,812.399L976.73,812.286L976.593,812.17L976.458,812.051L976.327,811.928L976.198,811.802L976.072,811.673L975.949,811.542L975.83,811.407L975.714,811.27L975.601,811.129L975.491,810.986L975.384,810.84L975.282,810.692L975.182,810.541L975.086,810.388L974.994,810.232L974.906,810.074L974.821,809.913L974.74,809.75L974.663,809.585L974.59,809.418L974.521,809.249L974.455,809.078L974.394,808.904L974.337,808.729L974.285,808.552L974.236,808.373L974.192,808.193L974.152,808.011L974.117,807.827L974.086,807.642L974.06,807.455L974.039,807.266L974.022,807.077L974.01,806.886L974.002,806.693L974,806.5L974.002,806.307L974.01,806.114L974.022,805.923L974.039,805.734L974.06,805.545L974.086,805.358L974.117,805.173L974.152,804.989L974.192,804.807L974.236,804.627L974.285,804.448L974.337,804.271L974.394,804.096L974.455,803.922L974.521,803.751L974.59,803.582L974.663,803.415L974.74,803.25L974.821,803.087L974.906,802.926L974.994,802.768L975.086,802.612L975.182,802.459L975.282,802.308L975.384,802.16L975.491,802.014L975.601,801.871L975.714,801.73L975.83,801.593L975.949,801.458L976.072,801.327L976.198,801.198L976.327,801.072L976.458,800.949L976.593,800.83L976.73,800.714L976.871,800.601L977.014,800.491L977.16,800.384L977.308,800.282L977.459,800.182L977.612,800.086L977.768,799.994L977.926,799.906L978.087,799.821L978.25,799.74L978.415,799.663L978.582,799.59L978.751,799.521L978.922,799.455L979.096,799.394L979.271,799.337L979.448,799.285L979.627,799.236L979.807,799.192L979.989,799.152L980.173,799.117L980.358,799.086L980.545,799.06L980.734,799.039L980.923,799.022L981.114,799.01L981.307,799.002L981.5,799L981.693,799.002L981.886,799.01L982.077,799.022L982.266,799.039L982.455,799.06L982.642,799.086L982.827,799.117L983.011,799.152L983.193,799.192L983.373,799.236L983.552,799.285L983.729,799.337L983.904,799.394L984.078,799.455L984.249,799.521L984.418,799.59L984.585,799.663L984.75,799.74L984.913,799.821L985.074,799.906L985.232,799.994L985.388,800.086L985.541,800.182L985.692,800.282L985.84,800.384L985.986,800.491L986.129,800.601L986.27,800.714L986.407,800.83L986.542,800.949L986.673,801.072L986.802,801.198L986.928,801.327L987.051,801.458L987.17,801.593L987.286,801.73L987.399,801.871L987.509,802.014L987.616,802.16L987.718,802.308L987.818,802.459L987.914,802.612L988.006,802.768L988.094,802.926L988.179,803.087L988.26,803.25L988.337,803.415L988.41,803.582L988.479,803.751L988.545,803.922L988.606,804.096L988.663,804.271L988.715,804.448L988.764,804.627L988.808,804.807L988.848,804.989L988.883,805.173L988.914,805.358L988.94,805.545L988.961,805.734L988.978,805.923L988.99,806.114L988.998,806.307L989,806.5L988.998,806.693L988.99,806.886L988.978,807.077L988.961,807.266L988.94,807.455L988.914,807.642L988.883,807.827L988.848,808.011L988.808,808.193L988.764,808.373L988.715,808.552L988.663,808.729L988.606,808.904L988.545,809.078L988.479,809.249L988.41,809.418L988.337,809.585L988.26,809.75L988.179,809.913L988.094,810.074L988.006,810.232L987.914,810.388L987.818,810.541L987.718,810.692L987.616,810.84L987.509,810.986L987.399,811.129L987.286,811.27L987.17,811.407L987.051,811.542L986.928,811.673L986.802,811.802L986.673,811.928L986.542,812.051L986.407,812.17L986.27,812.286L986.129,812.399L985.986,812.509L985.84,812.616L985.692,812.718L985.541,812.818L985.388,812.914L985.232,813.006L985.074,813.094L984.913,813.179L984.75,813.26L984.585,813.337L984.418,813.41L984.249,813.479L984.078,813.545L983.904,813.606L983.729,813.663L983.552,813.715L983.373,813.764L983.193,813.808L983.011,813.848L982.827,813.883L982.642,813.914L982.455,813.94L982.266,813.961L982.077,813.978L981.886,813.99L981.693,813.998L981.5,814L981.307,813.998ZM981.651,812.331L981.801,812.326L981.95,812.316L982.098,812.303L982.244,812.286L982.389,812.266L982.533,812.242L982.676,812.215L982.818,812.184L982.958,812.149L983.097,812.112L983.234,812.071L983.37,812.027L983.504,811.98L983.637,811.929L983.768,811.875L983.898,811.819L984.027,811.758L984.153,811.695L984.278,811.63L984.401,811.561L984.521,811.49L984.642,811.415L984.759,811.337L984.874,811.257L984.988,811.174L985.1,811.089L985.208,811.002L985.316,810.91L985.421,810.817L985.523,810.722L985.624,810.623L985.722,810.523L985.817,810.421L985.91,810.316L986.001,810.208L986.089,810.099L986.174,809.988L986.257,809.874L986.337,809.759L986.415,809.641L986.49,809.521L986.561,809.401L986.63,809.278L986.695,809.154L986.758,809.027L986.819,808.898L986.875,808.768L986.929,808.638L986.979,808.505L987.027,808.369L987.071,808.233L987.112,808.096L987.149,807.959L987.183,807.818L987.215,807.676L987.242,807.534L987.266,807.389L987.286,807.243L987.303,807.097L987.316,806.951L987.326,806.803L987.331,806.651L987.333,806.5L987.331,806.349L987.326,806.197L987.316,806.049L987.303,805.903L987.286,805.757L987.266,805.611L987.242,805.466L987.215,805.324L987.183,805.182L987.149,805.041L987.112,804.904L987.071,804.767L987.027,804.631L986.979,804.495L986.929,804.362L986.875,804.232L986.819,804.102L986.758,803.973L986.695,803.846L986.63,803.722L986.561,803.599L986.49,803.479L986.415,803.359L986.337,803.241L986.257,803.126L986.174,803.012L986.089,802.901L986.001,802.792L985.91,802.684L985.817,802.579L985.722,802.477L985.624,802.377L985.523,802.278L985.421,802.183L985.316,802.09L985.208,801.998L985.1,801.911L984.988,801.826L984.874,801.743L984.759,801.663L984.642,801.585L984.521,801.51L984.401,801.439L984.278,801.37L984.153,801.305L984.027,801.242L983.898,801.181L983.768,801.125L983.637,801.071L983.504,801.02L983.37,800.973L983.234,800.929L983.097,800.888L982.958,800.851L982.818,800.816L982.676,800.785L982.533,800.758L982.389,800.734L982.244,800.714L982.098,800.697L981.95,800.684L981.801,800.674L981.651,800.669L981.5,800.667L981.349,800.669L981.199,800.674L981.05,800.684L980.902,800.697L980.756,800.714L980.61,800.734L980.466,800.758L980.324,800.785L980.182,800.816L980.042,800.85L979.903,800.888L979.766,800.929L979.63,800.973L979.495,801.021L979.363,801.071L979.232,801.125L979.101,801.182L978.974,801.241L978.847,801.304L978.722,801.37L978.599,801.439L978.478,801.511L978.359,801.585L978.241,801.663L978.126,801.743L978.013,801.825L977.9,801.911L977.791,801.999L977.684,802.09L977.58,802.182L977.477,802.278L977.376,802.377L977.278,802.477L977.182,802.58L977.089,802.685L976.999,802.791L976.911,802.901L976.825,803.012L976.743,803.125L976.663,803.241L976.585,803.359L976.51,803.479L976.439,803.599L976.37,803.722L976.304,803.847L976.242,803.973L976.182,804.101L976.125,804.232L976.071,804.364L976.02,804.496L975.973,804.629L975.929,804.766L975.888,804.904L975.85,805.043L975.816,805.182L975.786,805.322L975.758,805.466L975.734,805.611L975.714,805.757L975.697,805.903L975.684,806.049L975.674,806.199L975.669,806.349L975.667,806.5L975.669,806.651L975.674,806.801L975.684,806.951L975.697,807.097L975.714,807.243L975.734,807.389L975.758,807.534L975.786,807.678L975.816,807.818L975.85,807.957L975.888,808.096L975.929,808.234L975.973,808.371L976.02,808.504L976.071,808.636L976.125,808.768L976.182,808.899L976.242,809.027L976.304,809.153L976.37,809.278L976.439,809.401L976.51,809.521L976.585,809.641L976.663,809.759L976.743,809.875L976.825,809.988L976.911,810.099L976.999,810.209L977.089,810.315L977.182,810.42L977.278,810.523L977.376,810.623L977.477,810.722L977.58,810.818L977.684,810.91L977.791,811.001L977.9,811.089L978.013,811.175L978.126,811.257L978.241,811.337L978.359,811.415L978.478,811.489L978.599,811.561L978.722,811.63L978.847,811.696L978.974,811.759L979.101,811.818L979.232,811.875L979.363,811.929L979.495,811.979L979.63,812.027L979.766,812.071L979.903,812.112L980.042,812.15L980.182,812.184L980.324,812.215L980.466,812.242L980.61,812.266L980.756,812.286L980.902,812.303L981.05,812.316L981.199,812.326L981.349,812.331L981.5,812.333L981.651,812.331Z" style="fill:white;"/>
                </g>
                <g transform="matrix(1.00507,0,0,0.98665,-4372.97,-20)">
                    <path d="M4743.36,812.999L4743.23,812.997L4743.23,811.996L4743.36,811.999L4743.5,812L4743.62,811.999L4743.74,811.997L4743.87,811.993L4743.99,811.988L4744.11,811.981L4744.23,811.972L4744.35,811.962L4744.47,811.951L4744.59,811.938L4744.71,811.924L4744.83,811.908L4744.95,811.89L4745.06,811.872L4745.18,811.852L4745.3,811.83L4745.41,811.807L4745.53,811.782L4745.64,811.757L4745.76,811.729L4745.87,811.701L4745.99,811.671L4746.1,811.639L4746.21,811.607L4746.32,811.573L4746.44,811.537L4746.55,811.501L4746.66,811.462L4746.77,811.423L4746.87,811.383L4746.98,811.341L4747.09,811.297L4747.2,811.253L4747.3,811.207L4747.41,811.16L4747.51,811.112L4747.62,811.063L4747.72,811.012L4747.82,810.96L4747.93,810.907L4748.03,810.853L4748.13,810.797L4748.23,810.741L4748.33,810.683L4748.43,810.624L4748.52,810.564L4748.62,810.502L4748.72,810.44L4748.81,810.377L4748.9,810.312L4749,810.246L4749.09,810.18L4749.18,810.112L4749.27,810.043L4749.36,809.973L4749.45,809.902L4749.54,809.83L4749.63,809.756L4749.72,809.682L4749.8,809.607L4749.89,809.531L4749.97,809.454L4750.05,809.375L4750.14,809.296L4750.22,809.216L4750.3,809.135L4750.38,809.053L4750.45,808.97L4750.53,808.886L4750.61,808.801L4750.68,808.716L4750.76,808.629L4750.83,808.541L4750.9,808.453L4750.97,808.364L4751.04,808.274L4751.11,808.182L4751.18,808.091L4751.25,807.998L4751.31,807.904L4751.38,807.81L4751.44,807.715L4751.5,807.619L4751.56,807.522L4751.62,807.425L4751.68,807.326L4751.74,807.227L4751.8,807.127L4751.85,807.027L4751.91,806.925L4751.96,806.823L4752.01,806.721L4752.06,806.617L4752.11,806.513L4752.16,806.408L4752.21,806.303L4752.25,806.196L4752.3,806.089L4752.34,805.982L4752.38,805.874L4752.42,805.765L4752.46,805.656L4752.5,805.546L4752.54,805.435L4752.57,805.324L4752.61,805.212L4752.64,805.099L4752.67,804.987L4752.7,804.873L4752.73,804.759L4752.76,804.644L4752.78,804.529L4752.81,804.414L4752.83,804.297L4752.85,804.181L4752.87,804.064L4752.89,803.946L4752.91,803.828L4752.92,803.709L4752.94,803.59L4752.95,803.471L4752.96,803.351L4752.97,803.23L4752.98,803.11L4752.99,802.989L4752.99,802.867L4753,802.745L4753,802.623L4753,802.5L4753,802.402L4753,802.304L4753,802.207L4752.99,802.109L4753.99,802.109L4754,802.207L4754,802.304L4754,802.402L4754,802.5L4754,802.636L4754,802.771L4753.99,802.906L4753.99,803.04L4753.98,803.174L4753.97,803.307L4753.96,803.44L4753.95,803.573L4753.93,803.705L4753.92,803.837L4753.9,803.968L4753.88,804.098L4753.86,804.228L4753.84,804.358L4753.81,804.487L4753.79,804.615L4753.76,804.743L4753.73,804.87L4753.7,804.997L4753.67,805.123L4753.64,805.248L4753.6,805.373L4753.57,805.497L4753.53,805.621L4753.49,805.744L4753.45,805.866L4753.41,805.988L4753.36,806.109L4753.32,806.229L4753.27,806.348L4753.22,806.467L4753.17,806.585L4753.12,806.703L4753.07,806.819L4753.02,806.935L4752.96,807.05L4752.91,807.165L4752.85,807.278L4752.79,807.391L4752.73,807.503L4752.67,807.614L4752.61,807.725L4752.54,807.834L4752.48,807.943L4752.41,808.051L4752.35,808.158L4752.28,808.264L4752.21,808.369L4752.13,808.473L4752.06,808.577L4751.99,808.679L4751.91,808.781L4751.84,808.881L4751.76,808.981L4751.68,809.08L4751.6,809.177L4751.52,809.274L4751.44,809.37L4751.36,809.465L4751.27,809.558L4751.19,809.651L4751.1,809.743L4751.01,809.834L4750.92,809.923L4750.83,810.012L4750.74,810.099L4750.65,810.186L4750.56,810.271L4750.47,810.355L4750.37,810.438L4750.27,810.52L4750.18,810.601L4750.08,810.681L4749.98,810.759L4749.88,810.837L4749.78,810.913L4749.68,810.988L4749.58,811.062L4749.47,811.134L4749.37,811.206L4749.26,811.276L4749.16,811.345L4749.05,811.413L4748.94,811.479L4748.83,811.544L4748.73,811.608L4748.61,811.671L4748.5,811.732L4748.39,811.792L4748.28,811.851L4748.16,811.908L4748.05,811.964L4747.94,812.019L4747.82,812.072L4747.7,812.124L4747.59,812.174L4747.47,812.223L4747.35,812.271L4747.23,812.318L4747.11,812.362L4746.99,812.406L4746.87,812.448L4746.74,812.488L4746.62,812.528L4746.5,812.565L4746.37,812.601L4746.25,812.636L4746.12,812.669L4746,812.701L4745.87,812.731L4745.74,812.759L4745.61,812.787L4745.49,812.812L4745.36,812.836L4745.23,812.858L4745.1,812.879L4744.97,812.898L4744.84,812.916L4744.7,812.931L4744.57,812.946L4744.44,812.958L4744.31,812.969L4744.17,812.979L4744.04,812.986L4743.91,812.992L4743.77,812.997L4743.64,812.999L4743.5,813L4743.36,812.999Z" style="fill:white;"/>
                </g>
                <g transform="matrix(1.67511,0,0,1.64442,75.3401,511.137)">
                    <path d="M189.669,165.4L189.638,165.398L189.608,165.396L189.577,165.394L189.547,165.39L189.517,165.386L189.488,165.381L189.458,165.376L189.429,165.369L189.4,165.362L189.372,165.354L189.343,165.346L189.315,165.337L189.288,165.327L189.26,165.317L189.233,165.306L189.206,165.294L189.18,165.282L189.154,165.269L189.128,165.255L189.103,165.241L189.078,165.226L189.053,165.211L189.029,165.195L189.006,165.178L188.982,165.161L188.959,165.144L188.937,165.126L188.915,165.107L188.893,165.088L188.872,165.068L188.852,165.048L188.832,165.028L188.812,165.007L188.793,164.985L188.774,164.963L188.756,164.941L188.739,164.918L188.722,164.894L188.705,164.871L188.689,164.847L188.674,164.822L188.659,164.797L188.645,164.772L188.631,164.746L188.618,164.72L188.606,164.694L188.594,164.667L188.583,164.64L188.573,164.612L188.563,164.585L188.554,164.557L188.546,164.528L188.538,164.5L188.531,164.471L188.524,164.442L188.519,164.412L188.514,164.383L188.51,164.353L188.506,164.323L188.504,164.292L188.502,164.262L188.5,164.231L188.5,164.2L188.5,164.169L188.502,164.138L188.504,164.108L188.506,164.077L188.51,164.047L188.514,164.017L188.519,163.988L188.524,163.958L188.531,163.929L188.538,163.9L188.546,163.872L188.554,163.843L188.563,163.815L188.573,163.788L188.583,163.76L188.594,163.733L188.606,163.706L188.618,163.68L188.631,163.654L188.645,163.628L188.659,163.603L188.674,163.578L188.689,163.553L188.705,163.529L188.722,163.506L188.739,163.482L188.756,163.459L188.774,163.437L188.793,163.415L188.812,163.393L188.832,163.372L188.852,163.352L188.872,163.332L188.893,163.312L188.915,163.293L188.937,163.274L188.959,163.256L188.982,163.239L189.006,163.222L189.029,163.205L189.053,163.189L189.078,163.174L189.103,163.159L189.128,163.145L189.154,163.131L189.18,163.118L189.206,163.106L189.233,163.094L189.26,163.083L189.288,163.073L189.315,163.063L189.343,163.054L189.372,163.046L189.4,163.038L189.429,163.031L189.458,163.024L189.488,163.019L189.517,163.014L189.547,163.01L189.577,163.006L189.608,163.004L189.638,163.002L189.669,163L189.7,163L189.731,163L189.762,163.002L189.792,163.004L189.823,163.006L189.853,163.01L189.883,163.014L189.912,163.019L189.942,163.024L189.971,163.031L190,163.038L190.028,163.046L190.057,163.054L190.085,163.063L190.112,163.073L190.14,163.083L190.167,163.094L190.194,163.106L190.22,163.118L190.246,163.131L190.272,163.145L190.297,163.159L190.322,163.174L190.347,163.189L190.371,163.205L190.394,163.222L190.418,163.239L190.441,163.256L190.463,163.274L190.485,163.293L190.507,163.312L190.528,163.332L190.548,163.352L190.568,163.372L190.588,163.393L190.607,163.415L190.626,163.437L190.644,163.459L190.661,163.482L190.678,163.506L190.695,163.529L190.711,163.553L190.726,163.578L190.741,163.603L190.755,163.628L190.769,163.654L190.782,163.68L190.794,163.706L190.806,163.733L190.817,163.76L190.827,163.788L190.837,163.815L190.846,163.843L190.854,163.872L190.862,163.9L190.869,163.929L190.876,163.958L190.881,163.988L190.886,164.017L190.89,164.047L190.894,164.077L190.896,164.108L190.898,164.138L190.9,164.169L190.9,164.2L190.9,164.231L190.898,164.262L190.896,164.292L190.894,164.323L190.89,164.353L190.886,164.383L190.881,164.412L190.876,164.442L190.869,164.471L190.862,164.5L190.854,164.528L190.846,164.557L190.837,164.585L190.827,164.612L190.817,164.64L190.806,164.667L190.794,164.694L190.782,164.72L190.769,164.746L190.755,164.772L190.741,164.797L190.726,164.822L190.711,164.847L190.695,164.871L190.678,164.894L190.661,164.918L190.644,164.941L190.626,164.963L190.607,164.985L190.588,165.007L190.568,165.028L190.548,165.048L190.528,165.068L190.507,165.088L190.485,165.107L190.463,165.126L190.441,165.144L190.418,165.161L190.394,165.178L190.371,165.195L190.347,165.211L190.322,165.226L190.297,165.241L190.272,165.255L190.246,165.269L190.22,165.282L190.194,165.294L190.167,165.306L190.14,165.317L190.112,165.327L190.085,165.337L190.057,165.346L190.028,165.354L190,165.362L189.971,165.369L189.942,165.376L189.912,165.381L189.883,165.386L189.853,165.39L189.823,165.394L189.792,165.396L189.762,165.398L189.731,165.4L189.7,165.4L189.669,165.4ZM189.716,164.8L189.731,164.799L189.747,164.798L189.762,164.797L189.777,164.795L189.792,164.793L189.807,164.791L189.821,164.788L189.836,164.785L189.85,164.781L189.864,164.777L189.878,164.773L189.892,164.769L189.906,164.764L189.92,164.758L189.933,164.753L189.946,164.747L189.959,164.741L189.972,164.735L189.985,164.728L189.998,164.721L190.01,164.713L190.023,164.706L190.035,164.698L190.046,164.69L190.059,164.681L190.07,164.672L190.081,164.663L190.092,164.654L190.103,164.644L190.113,164.634L190.125,164.624L190.134,164.614L190.144,164.604L190.154,164.592L190.163,164.581L190.171,164.571L190.181,164.558L190.19,164.547L190.198,164.534L190.206,164.522L190.214,164.51L190.221,164.498L190.228,164.485L190.234,164.473L190.241,164.46L190.248,164.446L190.253,164.433L190.258,164.42L190.264,164.406L190.268,164.393L190.273,164.377L190.277,164.364L190.281,164.351L190.285,164.336L190.288,164.321L190.291,164.307L190.293,164.292L190.295,164.277L190.297,164.262L190.298,164.247L190.299,164.231L190.3,164.216L190.3,164.2L190.3,164.184L190.299,164.169L190.298,164.153L190.297,164.138L190.295,164.123L190.293,164.108L190.291,164.093L190.288,164.079L190.285,164.064L190.281,164.049L190.277,164.036L190.273,164.023L190.268,164.007L190.264,163.994L190.258,163.98L190.253,163.967L190.248,163.954L190.241,163.94L190.234,163.927L190.228,163.915L190.221,163.902L190.214,163.89L190.206,163.878L190.198,163.866L190.19,163.853L190.181,163.842L190.171,163.829L190.163,163.819L190.154,163.808L190.144,163.796L190.134,163.786L190.125,163.776L190.113,163.766L190.103,163.756L190.092,163.746L190.081,163.737L190.07,163.728L190.059,163.719L190.046,163.71L190.035,163.702L190.023,163.694L190.01,163.687L189.998,163.679L189.985,163.672L189.972,163.665L189.959,163.659L189.946,163.653L189.933,163.647L189.92,163.642L189.906,163.636L189.892,163.631L189.878,163.627L189.864,163.623L189.85,163.619L189.836,163.615L189.821,163.612L189.807,163.609L189.792,163.607L189.777,163.605L189.762,163.603L189.747,163.602L189.731,163.601L189.716,163.6L189.7,163.6L189.684,163.6L189.669,163.601L189.653,163.602L189.638,163.603L189.623,163.605L189.608,163.607L189.593,163.609L189.579,163.612L189.564,163.615L189.55,163.619L189.536,163.623L189.521,163.627L189.507,163.632L189.494,163.636L189.48,163.642L189.467,163.647L189.454,163.653L189.441,163.659L189.428,163.665L189.415,163.672L189.402,163.679L189.39,163.687L189.378,163.694L189.365,163.702L189.353,163.71L189.342,163.719L189.33,163.728L189.319,163.737L189.308,163.746L189.297,163.756L189.287,163.766L189.276,163.776L189.265,163.787L189.256,163.797L189.246,163.808L189.237,163.819L189.228,163.83L189.219,163.842L189.21,163.853L189.203,163.865L189.194,163.877L189.186,163.89L189.179,163.902L189.172,163.915L189.165,163.928L189.159,163.941L189.153,163.953L189.147,163.967L189.141,163.981L189.136,163.994L189.132,164.007L189.127,164.022L189.123,164.036L189.119,164.051L189.116,164.063L189.113,164.078L189.109,164.093L189.107,164.108L189.105,164.123L189.103,164.139L189.102,164.154L189.101,164.169L189.1,164.184L189.1,164.2L189.1,164.216L189.101,164.231L189.102,164.246L189.103,164.261L189.105,164.277L189.107,164.292L189.109,164.307L189.113,164.322L189.116,164.337L189.119,164.349L189.123,164.364L189.127,164.378L189.132,164.393L189.136,164.406L189.141,164.419L189.147,164.433L189.153,164.447L189.159,164.459L189.165,164.472L189.172,164.485L189.179,164.498L189.186,164.51L189.194,164.523L189.203,164.535L189.21,164.547L189.219,164.558L189.228,164.57L189.237,164.581L189.246,164.592L189.256,164.603L189.265,164.613L189.276,164.624L189.287,164.634L189.297,164.644L189.308,164.654L189.319,164.663L189.33,164.672L189.342,164.681L189.353,164.69L189.365,164.698L189.378,164.706L189.39,164.713L189.402,164.721L189.415,164.728L189.428,164.735L189.441,164.741L189.454,164.747L189.467,164.753L189.48,164.758L189.494,164.764L189.507,164.768L189.521,164.773L189.536,164.777L189.55,164.781L189.564,164.785L189.579,164.788L189.593,164.791L189.608,164.793L189.623,164.795L189.638,164.797L189.653,164.798L189.669,164.799L189.684,164.8L189.7,164.8L189.716,164.8Z" style="fill:white;"/>
                </g>
                <g transform="matrix(1.67511,0,0,1.64442,86.339,500.284)">
                    <path d="M189.669,165.4L189.638,165.398L189.608,165.396L189.577,165.394L189.547,165.39L189.517,165.386L189.488,165.381L189.458,165.376L189.429,165.369L189.4,165.362L189.372,165.354L189.343,165.346L189.315,165.337L189.288,165.327L189.26,165.317L189.233,165.306L189.206,165.294L189.18,165.282L189.154,165.269L189.128,165.255L189.103,165.241L189.078,165.226L189.053,165.211L189.029,165.195L189.006,165.178L188.982,165.161L188.959,165.144L188.937,165.126L188.915,165.107L188.893,165.088L188.872,165.068L188.852,165.048L188.832,165.028L188.812,165.007L188.793,164.985L188.774,164.963L188.756,164.941L188.739,164.918L188.722,164.894L188.705,164.871L188.689,164.847L188.674,164.822L188.659,164.797L188.645,164.772L188.631,164.746L188.618,164.72L188.606,164.694L188.594,164.667L188.583,164.64L188.573,164.612L188.563,164.585L188.554,164.557L188.546,164.528L188.538,164.5L188.531,164.471L188.524,164.442L188.519,164.412L188.514,164.383L188.51,164.353L188.506,164.323L188.504,164.292L188.502,164.262L188.5,164.231L188.5,164.2L188.5,164.169L188.502,164.138L188.504,164.108L188.506,164.077L188.51,164.047L188.514,164.017L188.519,163.988L188.524,163.958L188.531,163.929L188.538,163.9L188.546,163.872L188.554,163.843L188.563,163.815L188.573,163.788L188.583,163.76L188.594,163.733L188.606,163.706L188.618,163.68L188.631,163.654L188.645,163.628L188.659,163.603L188.674,163.578L188.689,163.553L188.705,163.529L188.722,163.506L188.739,163.482L188.756,163.459L188.774,163.437L188.793,163.415L188.812,163.393L188.832,163.372L188.852,163.352L188.872,163.332L188.893,163.312L188.915,163.293L188.937,163.274L188.959,163.256L188.982,163.239L189.006,163.222L189.029,163.205L189.053,163.189L189.078,163.174L189.103,163.159L189.128,163.145L189.154,163.131L189.18,163.118L189.206,163.106L189.233,163.094L189.26,163.083L189.288,163.073L189.315,163.063L189.343,163.054L189.372,163.046L189.4,163.038L189.429,163.031L189.458,163.024L189.488,163.019L189.517,163.014L189.547,163.01L189.577,163.006L189.608,163.004L189.638,163.002L189.669,163L189.7,163L189.731,163L189.762,163.002L189.792,163.004L189.823,163.006L189.853,163.01L189.883,163.014L189.912,163.019L189.942,163.024L189.971,163.031L190,163.038L190.028,163.046L190.057,163.054L190.085,163.063L190.112,163.073L190.14,163.083L190.167,163.094L190.194,163.106L190.22,163.118L190.246,163.131L190.272,163.145L190.297,163.159L190.322,163.174L190.347,163.189L190.371,163.205L190.394,163.222L190.418,163.239L190.441,163.256L190.463,163.274L190.485,163.293L190.507,163.312L190.528,163.332L190.548,163.352L190.568,163.372L190.588,163.393L190.607,163.415L190.626,163.437L190.644,163.459L190.661,163.482L190.678,163.506L190.695,163.529L190.711,163.553L190.726,163.578L190.741,163.603L190.755,163.628L190.769,163.654L190.782,163.68L190.794,163.706L190.806,163.733L190.817,163.76L190.827,163.788L190.837,163.815L190.846,163.843L190.854,163.872L190.862,163.9L190.869,163.929L190.876,163.958L190.881,163.988L190.886,164.017L190.89,164.047L190.894,164.077L190.896,164.108L190.898,164.138L190.9,164.169L190.9,164.2L190.9,164.231L190.898,164.262L190.896,164.292L190.894,164.323L190.89,164.353L190.886,164.383L190.881,164.412L190.876,164.442L190.869,164.471L190.862,164.5L190.854,164.528L190.846,164.557L190.837,164.585L190.827,164.612L190.817,164.64L190.806,164.667L190.794,164.694L190.782,164.72L190.769,164.746L190.755,164.772L190.741,164.797L190.726,164.822L190.711,164.847L190.695,164.871L190.678,164.894L190.661,164.918L190.644,164.941L190.626,164.963L190.607,164.985L190.588,165.007L190.568,165.028L190.548,165.048L190.528,165.068L190.507,165.088L190.485,165.107L190.463,165.126L190.441,165.144L190.418,165.161L190.394,165.178L190.371,165.195L190.347,165.211L190.322,165.226L190.297,165.241L190.272,165.255L190.246,165.269L190.22,165.282L190.194,165.294L190.167,165.306L190.14,165.317L190.112,165.327L190.085,165.337L190.057,165.346L190.028,165.354L190,165.362L189.971,165.369L189.942,165.376L189.912,165.381L189.883,165.386L189.853,165.39L189.823,165.394L189.792,165.396L189.762,165.398L189.731,165.4L189.7,165.4L189.669,165.4ZM189.716,164.8L189.731,164.799L189.747,164.798L189.762,164.797L189.777,164.795L189.792,164.793L189.807,164.791L189.821,164.788L189.836,164.785L189.85,164.781L189.864,164.777L189.879,164.773L189.893,164.768L189.906,164.764L189.92,164.758L189.933,164.753L189.946,164.747L189.959,164.741L189.972,164.735L189.985,164.728L189.998,164.721L190.01,164.713L190.023,164.706L190.035,164.698L190.047,164.69L190.058,164.681L190.07,164.672L190.082,164.663L190.092,164.654L190.103,164.644L190.113,164.634L190.124,164.624L190.135,164.613L190.144,164.603L190.154,164.592L190.163,164.581L190.172,164.57L190.181,164.558L190.19,164.547L190.197,164.535L190.206,164.523L190.214,164.51L190.221,164.498L190.228,164.485L190.235,164.472L190.241,164.459L190.247,164.447L190.253,164.433L190.259,164.419L190.264,164.406L190.268,164.393L190.273,164.378L190.277,164.364L190.281,164.351L190.284,164.337L190.288,164.321L190.291,164.307L190.293,164.292L190.295,164.277L190.297,164.261L190.298,164.246L190.299,164.232L190.3,164.216L190.3,164.2L190.3,164.184L190.299,164.168L190.298,164.154L190.297,164.139L190.295,164.123L190.293,164.108L190.291,164.093L190.288,164.079L190.284,164.063L190.281,164.049L190.277,164.036L190.273,164.022L190.268,164.007L190.264,163.994L190.259,163.981L190.253,163.967L190.247,163.953L190.241,163.941L190.235,163.928L190.228,163.915L190.221,163.902L190.214,163.89L190.206,163.877L190.197,163.865L190.19,163.853L190.181,163.842L190.172,163.83L190.163,163.819L190.154,163.808L190.144,163.797L190.135,163.787L190.124,163.776L190.113,163.766L190.103,163.756L190.092,163.746L190.082,163.737L190.07,163.728L190.058,163.719L190.047,163.71L190.035,163.702L190.023,163.694L190.01,163.687L189.998,163.679L189.985,163.672L189.972,163.665L189.959,163.659L189.946,163.653L189.933,163.647L189.92,163.642L189.906,163.636L189.893,163.632L189.879,163.627L189.864,163.623L189.85,163.619L189.836,163.615L189.821,163.612L189.807,163.609L189.792,163.607L189.777,163.605L189.762,163.603L189.747,163.602L189.731,163.601L189.716,163.6L189.7,163.6L189.684,163.6L189.669,163.601L189.653,163.602L189.638,163.603L189.623,163.605L189.608,163.607L189.593,163.609L189.579,163.612L189.564,163.615L189.55,163.619L189.536,163.623L189.522,163.627L189.508,163.631L189.494,163.636L189.48,163.642L189.467,163.647L189.454,163.653L189.441,163.659L189.428,163.665L189.415,163.672L189.402,163.679L189.389,163.687L189.377,163.694L189.365,163.702L189.353,163.71L189.342,163.719L189.33,163.728L189.319,163.737L189.308,163.746L189.297,163.756L189.287,163.766L189.275,163.776L189.266,163.786L189.256,163.796L189.246,163.808L189.237,163.819L189.228,163.83L189.219,163.842L189.211,163.853L189.202,163.866L189.194,163.878L189.186,163.89L189.179,163.902L189.172,163.915L189.165,163.928L189.159,163.94L189.153,163.953L189.147,163.967L189.142,163.98L189.136,163.994L189.132,164.007L189.127,164.023L189.123,164.036L189.119,164.049L189.115,164.064L189.112,164.079L189.109,164.093L189.107,164.108L189.105,164.123L189.103,164.138L189.102,164.153L189.101,164.169L189.1,164.184L189.1,164.2L189.1,164.216L189.101,164.231L189.102,164.247L189.103,164.262L189.105,164.277L189.107,164.292L189.109,164.307L189.112,164.321L189.115,164.336L189.119,164.351L189.123,164.364L189.127,164.377L189.132,164.393L189.136,164.406L189.142,164.42L189.147,164.433L189.153,164.447L189.159,164.46L189.165,164.472L189.172,164.485L189.179,164.498L189.186,164.51L189.194,164.522L189.202,164.534L189.211,164.547L189.219,164.558L189.228,164.57L189.237,164.581L189.246,164.592L189.256,164.604L189.266,164.614L189.275,164.624L189.287,164.634L189.297,164.644L189.308,164.654L189.319,164.663L189.33,164.672L189.342,164.681L189.353,164.69L189.365,164.698L189.377,164.706L189.389,164.713L189.402,164.721L189.415,164.728L189.428,164.735L189.441,164.741L189.454,164.747L189.467,164.753L189.48,164.758L189.494,164.764L189.508,164.769L189.522,164.773L189.536,164.777L189.55,164.781L189.564,164.785L189.579,164.788L189.593,164.791L189.608,164.793L189.623,164.795L189.638,164.797L189.653,164.798L189.669,164.799L189.684,164.8L189.7,164.8L189.716,164.8Z" style="fill:white;"/>
                </g>
                <g transform="matrix(1.00507,0,0,0.657767,-4371.96,246.396)">
                    <rect x="4743" y="801" width="1" height="3" style="fill:white;"/>
                </g>
            </g>
        </g>
    </g>
</svg>
