<?xml version="1.0" encoding="UTF-8" standalone="no"?>
<!DOCTYPE svg PUBLIC "-//W3C//DTD SVG 1.1//EN" "http://www.w3.org/Graphics/SVG/1.1/DTD/svg11.dtd">
<svg width="100%" height="100%" viewBox="0 0 9 9" version="1.1" xmlns="http://www.w3.org/2000/svg" xmlns:xlink="http://www.w3.org/1999/xlink" xml:space="preserve" xmlns:serif="http://www.serif.com/" style="fill-rule:evenodd;clip-rule:evenodd;stroke-linejoin:round;stroke-miterlimit:2;">
    <g transform="matrix(1,0,0,1,-1458,-42)">
        <g transform="matrix(0.99496,0,0,1.01353,235.929,21.2706)">
            <g transform="matrix(1,0,0,1,370.869,-3.55271e-15)">
                <g transform="matrix(1.25633,0,0,1.23331,-2713.6,-38.0064)">
                    <path d="M2848.8,53.8L2843.2,53.8L2843.2,48.2L2848.8,48.2L2848.8,53.8ZM2844,49L2844,53L2848,53L2848,49L2844,49Z" style="fill:white;"/>
                </g>
                <g transform="matrix(1.00507,0,0,0.493325,-1996.99,0.226335)">
                    <rect x="2842" y="41" width="1" height="2" style="fill:white;"/>
                </g>
                <g transform="matrix(1.00507,0,0,0.493325,-1994.98,0.226335)">
                    <rect x="2842" y="41" width="1" height="2" style="fill:white;"/>
                </g>
                <g transform="matrix(1.00507,0,0,0.493325,-1992.97,0.226335)">
                    <rect x="2842" y="41" width="1" height="2" style="fill:white;"/>
                </g>
                <g transform="matrix(1.00507,0,0,0.493325,-1996.99,8.11954)">
                    <rect x="2842" y="41" width="1" height="2" style="fill:white;"/>
                </g>
                <g transform="matrix(1.00507,0,0,0.493325,-1994.98,8.11954)">
                    <rect x="2842" y="41" width="1" height="2" style="fill:white;"/>
                </g>
                <g transform="matrix(1.00507,0,0,0.493325,-1992.97,8.11954)">
                    <rect x="2842" y="41" width="1" height="2" style="fill:white;"/>
                </g>
                <g transform="matrix(6.15425e-17,0.98665,-0.502533,3.02075e-17,879,-2781.63)">
                    <rect x="2842" y="41" width="1" height="2" style="fill:white;"/>
                </g>
                <g transform="matrix(6.15425e-17,0.98665,-0.502533,3.02075e-17,879,-2779.66)">
                    <rect x="2842" y="41" width="1" height="2" style="fill:white;"/>
                </g>
                <g transform="matrix(6.15425e-17,0.98665,-0.502533,3.02075e-17,879,-2777.69)">
                    <rect x="2842" y="41" width="1" height="2" style="fill:white;"/>
                </g>
                <g transform="matrix(6.15425e-17,0.98665,-0.502533,3.02075e-17,887.041,-2781.63)">
                    <rect x="2842" y="41" width="1" height="2" style="fill:white;"/>
                </g>
                <g transform="matrix(6.15425e-17,0.98665,-0.502533,3.02075e-17,887.041,-2779.66)">
                    <rect x="2842" y="41" width="1" height="2" style="fill:white;"/>
                </g>
                <g transform="matrix(6.15425e-17,0.98665,-0.502533,3.02075e-17,887.041,-2777.69)">
                    <rect x="2842" y="41" width="1" height="2" style="fill:white;"/>
                </g>
            </g>
        </g>
    </g>
</svg>
