<?xml version="1.0" encoding="UTF-8" standalone="no"?>
<!DOCTYPE svg PUBLIC "-//W3C//DTD SVG 1.1//EN" "http://www.w3.org/Graphics/SVG/1.1/DTD/svg11.dtd">
<svg width="100%" height="100%" viewBox="0 0 8 9" version="1.1" xmlns="http://www.w3.org/2000/svg" xmlns:xlink="http://www.w3.org/1999/xlink" xml:space="preserve" xmlns:serif="http://www.serif.com/" style="fill-rule:evenodd;clip-rule:evenodd;stroke-linejoin:round;stroke-miterlimit:2;">
    <g transform="matrix(1,0,0,1,-791,-91)">
        <g transform="matrix(0.99496,0,0,1.01353,584.929,21.2706)">
            <g transform="matrix(0.618502,0,0,0.98665,-246.866,-817.214)">
                <path d="M747,898.25C747,898.112 746.818,898 746.594,898L734.406,898C734.182,898 734,898.112 734,898.25L734,898.75C734,898.888 734.182,899 734.406,899L746.594,899C746.818,899 747,898.888 747,898.75L747,898.25Z" style="fill:white;"/>
            </g>
        </g>
        <g transform="matrix(0.99496,0,0,1.01353,584.929,21.2706)">
            <g transform="matrix(0.618502,0,0,0.98665,-246.866,-809.32)">
                <path d="M747,898.25C747,898.112 746.818,898 746.594,898L734.406,898C734.182,898 734,898.112 734,898.25L734,898.75C734,898.888 734.182,899 734.406,899L746.594,899C746.818,899 747,898.888 747,898.75L747,898.25Z" style="fill:white;"/>
            </g>
        </g>
        <g transform="matrix(0.99496,0,0,1.01353,584.929,21.2706)">
            <g transform="matrix(0.618502,0,0,0.98665,-246.866,-813.267)">
                <path d="M747,898.25C747,898.112 746.818,898 746.594,898L734.406,898C734.182,898 734,898.112 734,898.25L734,898.75C734,898.888 734.182,899 734.406,899L746.594,899C746.818,899 747,898.888 747,898.75L747,898.25Z" style="fill:white;"/>
            </g>
        </g>
    </g>
</svg>
