<?xml version="1.0" encoding="UTF-8" standalone="no"?>
<!DOCTYPE svg PUBLIC "-//W3C//DTD SVG 1.1//EN" "http://www.w3.org/Graphics/SVG/1.1/DTD/svg11.dtd">
<svg width="100%" height="100%" viewBox="0 0 16 16" version="1.1" xmlns="http://www.w3.org/2000/svg" xmlns:xlink="http://www.w3.org/1999/xlink" xml:space="preserve" xmlns:serif="http://www.serif.com/" style="fill-rule:evenodd;clip-rule:evenodd;stroke-linejoin:round;stroke-miterlimit:2;">
    <g transform="matrix(1,0,0,1,-1918,-45)">
        <g transform="matrix(0.99496,0,0,1.02337,592.929,2.4674)">
            <g transform="matrix(1.00507,5.33761e-17,1.11022e-16,0.977163,930.761,-1768.15)">
                <circle cx="407" cy="1856" r="1" style="fill:white;"/>
            </g>
        </g>
        <g transform="matrix(0.99496,0,0,1.01353,584.929,-185.729)">
            <g transform="matrix(0.804052,0,0,0.78932,-550.504,-307.51)">
                <path d="M2361.13,678.001L2361.26,678.003L2361.39,678.007L2361.51,678.013L2361.64,678.02L2361.77,678.029L2361.9,678.04L2362.02,678.052L2362.15,678.065L2362.27,678.08L2362.4,678.097L2362.52,678.115L2362.65,678.135L2362.77,678.156L2362.89,678.179L2363.01,678.203L2363.14,678.229L2363.26,678.256L2363.38,678.285L2363.5,678.315L2363.62,678.347L2363.74,678.38L2363.86,678.414L2363.97,678.45L2364.09,678.487L2364.21,678.526L2364.32,678.566L2364.44,678.607L2364.55,678.65L2364.66,678.694L2364.78,678.74L2364.89,678.786L2365,678.834L2365.11,678.884L2365.22,678.935L2365.33,678.987L2365.44,679.04L2365.55,679.095L2365.66,679.151L2365.76,679.208L2365.87,679.266L2365.98,679.326L2366.08,679.387L2366.18,679.449L2366.29,679.512L2366.39,679.576L2366.49,679.642L2366.59,679.709L2366.69,679.777L2366.79,679.846L2366.89,679.916L2366.98,679.988L2367.08,680.06L2367.17,680.134L2367.27,680.209L2367.36,680.285L2367.45,680.362L2367.54,680.44L2367.63,680.519L2367.72,680.599L2367.81,680.68L2367.9,680.763L2367.98,680.846L2368.07,680.93L2368.15,681.016L2368.24,681.102L2368.32,681.189L2368.4,681.278L2368.48,681.367L2368.56,681.457L2368.64,681.548L2368.72,681.641L2368.79,681.734L2368.87,681.828L2368.94,681.923L2369.01,682.018L2369.08,682.115L2369.15,682.213L2369.22,682.311L2369.29,682.411L2369.36,682.511L2369.42,682.612L2369.49,682.714L2369.55,682.816L2369.61,682.92L2369.67,683.024L2369.73,683.129L2369.79,683.235L2369.85,683.342L2369.91,683.449L2369.96,683.557L2370.01,683.666L2370.07,683.776L2370.12,683.886L2370.17,683.997L2370.21,684.109L2370.26,684.222L2370.31,684.335L2370.35,684.449L2370.39,684.563L2370.43,684.678L2370.47,684.794L2370.51,684.911L2370.55,685.028L2370.59,685.145L2370.62,685.264L2370.65,685.383L2370.68,685.502L2370.72,685.622L2370.74,685.743L2370.77,685.864L2370.8,685.986L2370.82,686.108L2370.84,686.231L2370.87,686.354L2370.89,686.478L2370.9,686.602L2370.92,686.727L2370.93,686.852L2370.95,686.978L2370.96,687.104L2370.97,687.231L2370.98,687.358L2370.99,687.486L2370.99,687.614L2371,687.742L2371,687.871L2371,688L2371,688.129L2371,688.258L2370.99,688.386L2370.99,688.514L2370.98,688.642L2370.97,688.769L2370.96,688.896L2370.95,689.022L2370.93,689.148L2370.92,689.273L2370.9,689.398L2370.89,689.522L2370.87,689.646L2370.84,689.769L2370.82,689.892L2370.8,690.014L2370.77,690.136L2370.74,690.257L2370.72,690.378L2370.68,690.498L2370.65,690.617L2370.62,690.736L2370.59,690.855L2370.55,690.972L2370.51,691.089L2370.47,691.206L2370.43,691.322L2370.39,691.437L2370.35,691.551L2370.31,691.665L2370.26,691.778L2370.21,691.891L2370.17,692.003L2370.12,692.114L2370.07,692.224L2370.01,692.334L2369.96,692.443L2369.91,692.551L2369.85,692.658L2369.79,692.765L2369.73,692.871L2369.67,692.976L2369.61,693.08L2369.55,693.184L2369.49,693.286L2369.42,693.388L2369.36,693.489L2369.29,693.589L2369.22,693.689L2369.15,693.787L2369.08,693.885L2369.01,693.982L2368.94,694.077L2368.87,694.172L2368.79,694.266L2368.72,694.359L2368.64,694.452L2368.56,694.543L2368.48,694.633L2368.4,694.722L2368.32,694.811L2368.24,694.898L2368.15,694.984L2368.07,695.07L2367.98,695.154L2367.9,695.237L2367.81,695.32L2367.72,695.401L2367.63,695.481L2367.54,695.56L2367.45,695.638L2367.36,695.715L2367.27,695.791L2367.17,695.866L2367.08,695.94L2366.98,696.012L2366.89,696.084L2366.79,696.154L2366.69,696.223L2366.59,696.291L2366.49,696.358L2366.39,696.424L2366.29,696.488L2366.18,696.551L2366.08,696.613L2365.98,696.674L2365.87,696.734L2365.76,696.792L2365.66,696.849L2365.55,696.905L2365.44,696.96L2365.33,697.013L2365.22,697.065L2365.11,697.116L2365,697.166L2364.89,697.214L2364.78,697.26L2364.66,697.306L2364.55,697.35L2364.44,697.393L2364.32,697.434L2364.21,697.474L2364.09,697.513L2363.97,697.55L2363.86,697.586L2363.74,697.62L2363.62,697.653L2363.5,697.685L2363.38,697.715L2363.26,697.744L2363.14,697.771L2363.01,697.797L2362.89,697.821L2362.77,697.844L2362.65,697.865L2362.52,697.885L2362.4,697.903L2362.27,697.92L2362.15,697.935L2362.02,697.948L2361.9,697.96L2361.77,697.971L2361.64,697.98L2361.51,697.987L2361.39,697.993L2361.26,697.997L2361.13,697.999L2361,698L2360.87,697.999L2360.74,697.997L2360.61,697.993L2360.49,697.987L2360.36,697.98L2360.23,697.971L2360.1,697.96L2359.98,697.948L2359.85,697.935L2359.73,697.92L2359.6,697.903L2359.48,697.885L2359.35,697.865L2359.23,697.844L2359.11,697.821L2358.99,697.797L2358.86,697.771L2358.74,697.744L2358.62,697.715L2358.5,697.685L2358.38,697.653L2358.26,697.62L2358.14,697.586L2358.03,697.55L2357.91,697.513L2357.79,697.474L2357.68,697.434L2357.56,697.393L2357.45,697.35L2357.34,697.306L2357.22,697.26L2357.11,697.214L2357,697.166L2356.89,697.116L2356.78,697.065L2356.67,697.013L2356.56,696.96L2356.45,696.905L2356.34,696.849L2356.24,696.792L2356.13,696.734L2356.02,696.674L2355.92,696.613L2355.82,696.551L2355.71,696.488L2355.61,696.424L2355.51,696.358L2355.41,696.291L2355.31,696.223L2355.21,696.154L2355.12,696.084L2355.02,696.012L2354.92,695.94L2354.83,695.866L2354.73,695.791L2354.64,695.715L2354.55,695.638L2354.46,695.56L2354.37,695.481L2354.28,695.401L2354.19,695.32L2354.1,695.237L2354.02,695.154L2353.93,695.07L2353.85,694.984L2353.76,694.898L2353.68,694.811L2353.6,694.722L2353.52,694.633L2353.44,694.543L2353.36,694.452L2353.28,694.359L2353.21,694.266L2353.13,694.172L2353.06,694.077L2352.99,693.982L2352.92,693.885L2352.85,693.787L2352.78,693.689L2352.71,693.589L2352.64,693.489L2352.58,693.388L2352.51,693.286L2352.45,693.184L2352.39,693.08L2352.33,692.976L2352.27,692.871L2352.21,692.765L2352.15,692.658L2352.1,692.551L2352.04,692.443L2351.99,692.334L2351.93,692.224L2351.88,692.114L2351.83,692.003L2351.79,691.891L2351.74,691.778L2351.69,691.665L2351.65,691.551L2351.61,691.437L2351.57,691.322L2351.53,691.206L2351.49,691.089L2351.45,690.972L2351.41,690.855L2351.38,690.736L2351.35,690.617L2351.32,690.498L2351.28,690.378L2351.26,690.257L2351.23,690.136L2351.2,690.014L2351.18,689.892L2351.16,689.769L2351.14,689.646L2351.12,689.522L2351.1,689.398L2351.08,689.273L2351.07,689.148L2351.05,689.022L2351.04,688.896L2351.03,688.769L2351.02,688.642L2351.01,688.514L2351.01,688.386L2351,688.258L2351,688.129L2351,688L2351,687.871L2351,687.742L2351.01,687.614L2351.01,687.486L2351.02,687.358L2351.03,687.231L2351.04,687.104L2351.05,686.978L2351.07,686.852L2351.08,686.727L2351.1,686.602L2351.12,686.478L2351.14,686.354L2351.16,686.231L2351.18,686.108L2351.2,685.986L2351.23,685.864L2351.26,685.743L2351.28,685.622L2351.32,685.502L2351.35,685.383L2351.38,685.264L2351.41,685.145L2351.45,685.028L2351.49,684.911L2351.53,684.794L2351.57,684.678L2351.61,684.563L2351.65,684.449L2351.69,684.335L2351.74,684.222L2351.79,684.109L2351.83,683.997L2351.88,683.886L2351.93,683.776L2351.99,683.666L2352.04,683.557L2352.1,683.449L2352.15,683.342L2352.21,683.235L2352.27,683.129L2352.33,683.024L2352.39,682.92L2352.45,682.816L2352.51,682.714L2352.58,682.612L2352.64,682.511L2352.71,682.411L2352.78,682.311L2352.85,682.213L2352.92,682.115L2352.99,682.018L2353.06,681.923L2353.13,681.828L2353.21,681.734L2353.28,681.641L2353.36,681.548L2353.44,681.457L2353.52,681.367L2353.6,681.278L2353.68,681.189L2353.76,681.102L2353.85,681.016L2353.93,680.93L2354.02,680.846L2354.1,680.763L2354.19,680.68L2354.28,680.599L2354.37,680.519L2354.46,680.44L2354.55,680.362L2354.64,680.285L2354.73,680.209L2354.83,680.134L2354.92,680.06L2355.02,679.988L2355.12,679.916L2355.21,679.846L2355.31,679.777L2355.41,679.709L2355.51,679.642L2355.61,679.576L2355.71,679.512L2355.82,679.449L2355.92,679.387L2356.02,679.326L2356.13,679.266L2356.24,679.208L2356.34,679.151L2356.45,679.095L2356.56,679.04L2356.67,678.987L2356.78,678.935L2356.89,678.884L2357,678.834L2357.11,678.786L2357.22,678.74L2357.34,678.694L2357.45,678.65L2357.56,678.607L2357.68,678.566L2357.79,678.526L2357.91,678.487L2358.03,678.45L2358.14,678.414L2358.26,678.38L2358.38,678.347L2358.5,678.315L2358.62,678.285L2358.74,678.256L2358.86,678.229L2358.99,678.203L2359.11,678.179L2359.23,678.156L2359.35,678.135L2359.48,678.115L2359.6,678.097L2359.73,678.08L2359.85,678.065L2359.98,678.052L2360.1,678.04L2360.23,678.029L2360.36,678.02L2360.49,678.013L2360.61,678.007L2360.74,678.003L2360.87,678.001L2361,678L2361.13,678.001ZM2360.89,679.251L2360.77,679.253L2360.66,679.256L2360.55,679.261L2360.44,679.268L2360.33,679.276L2360.22,679.285L2360.11,679.295L2359.99,679.307L2359.89,679.32L2359.78,679.335L2359.67,679.351L2359.56,679.368L2359.45,679.387L2359.34,679.407L2359.24,679.428L2359.13,679.45L2359.02,679.474L2358.92,679.499L2358.81,679.526L2358.71,679.553L2358.61,679.582L2358.5,679.612L2358.4,679.644L2358.3,679.676L2358.2,679.71L2358.09,679.745L2357.99,679.781L2357.89,679.818L2357.79,679.857L2357.69,679.897L2357.6,679.937L2357.5,679.979L2357.4,680.023L2357.3,680.067L2357.21,680.113L2357.11,680.16L2357.02,680.207L2356.93,680.256L2356.83,680.306L2356.74,680.357L2356.65,680.409L2356.56,680.462L2356.47,680.517L2356.38,680.572L2356.29,680.628L2356.2,680.686L2356.11,680.744L2356.02,680.804L2355.94,680.864L2355.85,680.926L2355.77,680.989L2355.68,681.052L2355.6,681.116L2355.52,681.183L2355.44,681.249L2355.36,681.316L2355.28,681.385L2355.2,681.454L2355.12,681.524L2355.04,681.595L2354.97,681.667L2354.89,681.74L2354.81,681.814L2354.74,681.889L2354.67,681.965L2354.6,682.042L2354.53,682.118L2354.45,682.196L2354.38,682.276L2354.32,682.355L2354.25,682.437L2354.18,682.518L2354.12,682.6L2354.05,682.683L2353.99,682.767L2353.93,682.852L2353.87,682.937L2353.8,683.024L2353.74,683.11L2353.69,683.198L2353.63,683.287L2353.57,683.376L2353.52,683.465L2353.46,683.556L2353.41,683.648L2353.36,683.739L2353.31,683.832L2353.26,683.925L2353.21,684.019L2353.16,684.114L2353.11,684.209L2353.07,684.305L2353.02,684.402L2352.98,684.499L2352.94,684.597L2352.9,684.695L2352.86,684.793L2352.82,684.893L2352.78,684.994L2352.74,685.094L2352.71,685.194L2352.68,685.296L2352.64,685.4L2352.61,685.502L2352.58,685.606L2352.55,685.71L2352.53,685.813L2352.5,685.919L2352.47,686.025L2352.45,686.13L2352.43,686.237L2352.41,686.343L2352.39,686.451L2352.37,686.559L2352.35,686.667L2352.34,686.775L2352.32,686.885L2352.31,686.995L2352.3,687.104L2352.28,687.215L2352.28,687.327L2352.27,687.438L2352.26,687.549L2352.26,687.661L2352.25,687.774L2352.25,687.887L2352.25,688L2352.25,688.113L2352.25,688.226L2352.26,688.339L2352.26,688.451L2352.27,688.562L2352.28,688.673L2352.28,688.785L2352.3,688.896L2352.31,689.005L2352.32,689.115L2352.34,689.225L2352.35,689.333L2352.37,689.441L2352.39,689.549L2352.41,689.657L2352.43,689.763L2352.45,689.87L2352.47,689.975L2352.5,690.081L2352.53,690.187L2352.55,690.29L2352.58,690.394L2352.61,690.498L2352.64,690.6L2352.68,690.704L2352.71,690.806L2352.74,690.906L2352.78,691.006L2352.82,691.107L2352.86,691.207L2352.9,691.305L2352.94,691.403L2352.98,691.501L2353.02,691.598L2353.07,691.695L2353.11,691.791L2353.16,691.886L2353.21,691.981L2353.26,692.075L2353.31,692.168L2353.36,692.261L2353.41,692.352L2353.46,692.444L2353.52,692.535L2353.57,692.624L2353.63,692.713L2353.69,692.802L2353.74,692.89L2353.8,692.976L2353.87,693.063L2353.93,693.148L2353.99,693.233L2354.05,693.317L2354.12,693.4L2354.18,693.482L2354.25,693.563L2354.32,693.645L2354.38,693.724L2354.45,693.804L2354.53,693.882L2354.6,693.958L2354.67,694.035L2354.74,694.111L2354.81,694.186L2354.89,694.26L2354.97,694.333L2355.04,694.405L2355.12,694.476L2355.2,694.546L2355.28,694.615L2355.36,694.684L2355.44,694.751L2355.52,694.817L2355.6,694.884L2355.68,694.948L2355.77,695.011L2355.85,695.074L2355.94,695.136L2356.02,695.196L2356.11,695.256L2356.2,695.314L2356.29,695.372L2356.38,695.428L2356.47,695.483L2356.56,695.538L2356.65,695.591L2356.74,695.643L2356.83,695.694L2356.93,695.744L2357.02,695.793L2357.11,695.84L2357.21,695.887L2357.3,695.933L2357.4,695.977L2357.5,696.021L2357.6,696.063L2357.69,696.103L2357.79,696.143L2357.89,696.182L2357.99,696.219L2358.09,696.255L2358.2,696.29L2358.3,696.324L2358.4,696.356L2358.5,696.388L2358.61,696.418L2358.71,696.447L2358.81,696.474L2358.92,696.501L2359.02,696.526L2359.13,696.55L2359.24,696.572L2359.34,696.593L2359.45,696.613L2359.56,696.632L2359.67,696.649L2359.78,696.665L2359.89,696.68L2359.99,696.693L2360.11,696.705L2360.22,696.715L2360.33,696.724L2360.44,696.732L2360.55,696.739L2360.66,696.744L2360.77,696.747L2360.89,696.749L2361,696.75L2361.11,696.749L2361.23,696.747L2361.34,696.744L2361.45,696.739L2361.56,696.732L2361.67,696.724L2361.78,696.715L2361.89,696.705L2362.01,696.693L2362.12,696.68L2362.22,696.665L2362.33,696.649L2362.44,696.632L2362.55,696.613L2362.66,696.593L2362.76,696.572L2362.87,696.55L2362.98,696.526L2363.08,696.501L2363.19,696.474L2363.29,696.447L2363.39,696.418L2363.5,696.388L2363.6,696.356L2363.7,696.324L2363.8,696.29L2363.91,696.255L2364.01,696.219L2364.11,696.182L2364.21,696.143L2364.31,696.103L2364.4,696.063L2364.5,696.021L2364.6,695.977L2364.7,695.933L2364.79,695.887L2364.89,695.84L2364.98,695.793L2365.08,695.744L2365.17,695.694L2365.26,695.643L2365.35,695.591L2365.44,695.538L2365.53,695.483L2365.62,695.428L2365.71,695.372L2365.8,695.314L2365.89,695.256L2365.98,695.196L2366.06,695.136L2366.15,695.074L2366.23,695.011L2366.32,694.948L2366.4,694.884L2366.48,694.817L2366.56,694.751L2366.64,694.684L2366.72,694.615L2366.8,694.546L2366.88,694.476L2366.96,694.405L2367.03,694.333L2367.11,694.26L2367.19,694.186L2367.26,694.111L2367.33,694.035L2367.41,693.958L2367.47,693.882L2367.55,693.804L2367.62,693.724L2367.68,693.645L2367.75,693.563L2367.82,693.482L2367.88,693.4L2367.95,693.317L2368.01,693.233L2368.07,693.148L2368.14,693.063L2368.2,692.976L2368.26,692.89L2368.31,692.802L2368.37,692.713L2368.43,692.624L2368.48,692.535L2368.54,692.444L2368.59,692.352L2368.64,692.261L2368.69,692.168L2368.74,692.075L2368.79,691.981L2368.84,691.886L2368.89,691.791L2368.93,691.695L2368.98,691.598L2369.02,691.501L2369.06,691.403L2369.1,691.305L2369.14,691.207L2369.18,691.107L2369.22,691.006L2369.26,690.906L2369.29,690.806L2369.32,690.704L2369.36,690.6L2369.39,690.498L2369.42,690.394L2369.45,690.29L2369.47,690.187L2369.5,690.081L2369.53,689.975L2369.55,689.87L2369.57,689.763L2369.59,689.657L2369.61,689.549L2369.63,689.441L2369.65,689.333L2369.66,689.225L2369.68,689.115L2369.69,689.005L2369.7,688.896L2369.72,688.785L2369.72,688.673L2369.73,688.562L2369.74,688.451L2369.74,688.339L2369.75,688.226L2369.75,688.113L2369.75,688L2369.75,687.887L2369.75,687.774L2369.74,687.661L2369.74,687.549L2369.73,687.438L2369.72,687.327L2369.72,687.215L2369.7,687.104L2369.69,686.995L2369.68,686.885L2369.66,686.775L2369.65,686.667L2369.63,686.559L2369.61,686.451L2369.59,686.343L2369.57,686.237L2369.55,686.13L2369.53,686.025L2369.5,685.919L2369.47,685.813L2369.45,685.71L2369.42,685.606L2369.39,685.502L2369.36,685.4L2369.32,685.296L2369.29,685.194L2369.26,685.094L2369.22,684.994L2369.18,684.893L2369.14,684.793L2369.1,684.695L2369.06,684.597L2369.02,684.499L2368.98,684.402L2368.93,684.305L2368.89,684.209L2368.84,684.114L2368.79,684.019L2368.74,683.925L2368.69,683.832L2368.64,683.739L2368.59,683.648L2368.54,683.556L2368.48,683.465L2368.43,683.376L2368.37,683.287L2368.31,683.198L2368.26,683.11L2368.2,683.024L2368.14,682.937L2368.07,682.852L2368.01,682.767L2367.95,682.683L2367.88,682.6L2367.82,682.518L2367.75,682.437L2367.68,682.355L2367.62,682.276L2367.55,682.196L2367.47,682.118L2367.41,682.042L2367.33,681.965L2367.26,681.889L2367.19,681.814L2367.11,681.74L2367.03,681.667L2366.96,681.595L2366.88,681.524L2366.8,681.454L2366.72,681.385L2366.64,681.316L2366.56,681.249L2366.48,681.183L2366.4,681.116L2366.32,681.052L2366.23,680.989L2366.15,680.926L2366.06,680.864L2365.98,680.804L2365.89,680.744L2365.8,680.686L2365.71,680.628L2365.62,680.572L2365.53,680.517L2365.44,680.462L2365.35,680.409L2365.26,680.357L2365.17,680.306L2365.08,680.256L2364.98,680.207L2364.89,680.16L2364.79,680.113L2364.7,680.067L2364.6,680.023L2364.5,679.979L2364.4,679.937L2364.31,679.897L2364.21,679.857L2364.11,679.818L2364.01,679.781L2363.91,679.745L2363.8,679.71L2363.7,679.676L2363.6,679.644L2363.5,679.612L2363.39,679.582L2363.29,679.553L2363.19,679.526L2363.08,679.499L2362.98,679.474L2362.87,679.45L2362.76,679.428L2362.66,679.407L2362.55,679.387L2362.44,679.368L2362.33,679.351L2362.22,679.335L2362.12,679.32L2362.01,679.307L2361.89,679.295L2361.78,679.285L2361.67,679.276L2361.56,679.268L2361.45,679.261L2361.34,679.256L2361.23,679.253L2361.11,679.251L2361,679.25L2360.89,679.251Z" style="fill:white;"/>
            </g>
        </g>
    </g>
</svg>
