<?xml version="1.0" encoding="UTF-8" standalone="no"?>
<!DOCTYPE svg PUBLIC "-//W3C//DTD SVG 1.1//EN" "http://www.w3.org/Graphics/SVG/1.1/DTD/svg11.dtd">
<svg width="100%" height="100%" viewBox="0 0 13 16" version="1.1" xmlns="http://www.w3.org/2000/svg" xmlns:xlink="http://www.w3.org/1999/xlink" xml:space="preserve" xmlns:serif="http://www.serif.com/" style="fill-rule:evenodd;clip-rule:evenodd;stroke-linejoin:round;stroke-miterlimit:2;">
    <g transform="matrix(1,0,0,1,-1023,-45)">
        <g transform="matrix(0.99496,0,0,1.02337,778.929,11.4674)">
            <g transform="matrix(1.00507,0,0,0.977163,-40.1317,3.45192)">
                <path d="M293.052,30.001L293.103,30.003L293.154,30.006L293.204,30.01L293.255,30.016L293.304,30.023L293.354,30.031L293.403,30.041L293.451,30.051L293.5,30.063L293.547,30.076L293.594,30.09L293.641,30.105L293.687,30.121L293.733,30.139L293.778,30.157L293.823,30.177L293.867,30.197L293.91,30.219L293.953,30.242L293.995,30.265L294.037,30.29L294.078,30.315L294.118,30.342L294.157,30.369L294.196,30.398L294.234,30.427L294.272,30.457L294.309,30.488L294.344,30.52L294.38,30.553L294.414,30.586L294.447,30.62L294.48,30.656L294.512,30.691L294.543,30.728L294.573,30.766L294.602,30.804L294.631,30.843L294.658,30.882L294.685,30.922L294.71,30.963L294.735,31.005L294.758,31.047L294.781,31.09L294.803,31.133L294.823,31.177L294.843,31.222L294.861,31.267L294.879,31.313L294.895,31.359L294.91,31.406L294.924,31.453L294.937,31.5L294.949,31.549L294.959,31.597L294.969,31.646L294.977,31.696L294.984,31.745L294.99,31.796L294.994,31.846L294.997,31.897L294.999,31.948L295,32L297,44L296.999,44.052L296.997,44.103L296.994,44.154L296.99,44.204L296.984,44.255L296.977,44.304L296.969,44.354L296.959,44.403L296.949,44.451L296.937,44.5L296.924,44.547L296.91,44.594L296.895,44.641L296.879,44.687L296.861,44.733L296.843,44.778L296.823,44.823L296.803,44.867L296.781,44.91L296.758,44.953L296.735,44.995L296.71,45.037L296.685,45.078L296.658,45.118L296.631,45.157L296.602,45.196L296.573,45.234L296.543,45.272L296.512,45.309L296.48,45.344L296.447,45.38L296.414,45.414L296.38,45.447L296.344,45.48L296.309,45.512L296.272,45.543L296.234,45.573L296.196,45.602L296.157,45.631L296.118,45.658L296.078,45.685L296.037,45.71L295.995,45.735L295.953,45.758L295.91,45.781L295.867,45.803L295.823,45.823L295.778,45.843L295.733,45.861L295.687,45.879L295.641,45.895L295.594,45.91L295.547,45.924L295.5,45.937L295.451,45.949L295.403,45.959L295.354,45.969L295.304,45.977L295.255,45.984L295.204,45.99L295.154,45.994L295.103,45.997L295.052,45.999L295,46L286,46L285.948,45.999L285.897,45.997L285.846,45.994L285.796,45.99L285.745,45.984L285.696,45.977L285.646,45.969L285.597,45.959L285.549,45.949L285.5,45.937L285.453,45.924L285.406,45.91L285.359,45.895L285.313,45.879L285.267,45.861L285.222,45.843L285.177,45.823L285.133,45.803L285.09,45.781L285.047,45.758L285.005,45.735L284.963,45.71L284.922,45.685L284.882,45.658L284.843,45.631L284.804,45.602L284.766,45.573L284.728,45.543L284.691,45.512L284.656,45.48L284.62,45.447L284.586,45.414L284.553,45.38L284.52,45.344L284.488,45.309L284.457,45.272L284.427,45.234L284.398,45.196L284.369,45.157L284.342,45.118L284.315,45.078L284.29,45.037L284.265,44.995L284.242,44.953L284.219,44.91L284.197,44.867L284.177,44.823L284.157,44.778L284.139,44.733L284.121,44.687L284.105,44.641L284.09,44.594L284.076,44.547L284.063,44.5L284.051,44.451L284.041,44.403L284.031,44.354L284.023,44.304L284.016,44.255L284.01,44.204L284.006,44.154L284.003,44.103L284.001,44.052L284,44L286,32L286.001,31.948L286.003,31.897L286.006,31.846L286.01,31.796L286.016,31.745L286.023,31.696L286.031,31.646L286.041,31.597L286.051,31.549L286.063,31.5L286.076,31.453L286.09,31.406L286.105,31.359L286.121,31.313L286.139,31.267L286.157,31.222L286.177,31.177L286.197,31.133L286.219,31.09L286.242,31.047L286.265,31.005L286.29,30.963L286.315,30.922L286.342,30.882L286.369,30.843L286.398,30.804L286.427,30.766L286.457,30.728L286.488,30.691L286.52,30.656L286.553,30.62L286.586,30.586L286.62,30.553L286.656,30.52L286.691,30.488L286.728,30.457L286.766,30.427L286.804,30.398L286.843,30.369L286.882,30.342L286.922,30.315L286.963,30.29L287.005,30.265L287.047,30.242L287.09,30.219L287.133,30.197L287.177,30.177L287.222,30.157L287.267,30.139L287.313,30.121L287.359,30.105L287.406,30.09L287.453,30.076L287.5,30.063L287.549,30.051L287.597,30.041L287.646,30.031L287.696,30.023L287.745,30.016L287.796,30.01L287.846,30.006L287.897,30.003L287.948,30.001L288,30L293,30L293.052,30.001ZM288.006,31L287.974,31L287.948,31.001L287.922,31.003L287.897,31.005L287.872,31.008L287.847,31.012L287.822,31.016L287.798,31.02L287.774,31.026L287.75,31.032L287.726,31.038L287.703,31.045L287.68,31.052L287.657,31.06L287.634,31.069L287.611,31.078L287.589,31.088L287.568,31.098L287.546,31.109L287.525,31.12L287.504,31.132L287.483,31.144L287.462,31.157L287.442,31.17L287.422,31.184L287.403,31.198L287.383,31.213L287.365,31.228L287.346,31.244L287.328,31.26L287.311,31.276L287.293,31.293L287.276,31.311L287.26,31.328L287.244,31.346L287.228,31.365L287.213,31.384L287.198,31.403L287.185,31.422L287.171,31.442L287.157,31.463L287.144,31.483L287.132,31.504L287.12,31.525L287.109,31.546L287.098,31.567L287.088,31.589L287.078,31.612L287.069,31.635L287.061,31.656L287.053,31.679L287.045,31.703L287.038,31.726L287.032,31.749L287.026,31.773L287.02,31.798L287.016,31.822L287.012,31.847L287.008,31.872L287.005,31.897L287.003,31.922L287.001,31.947L287,31.974L286.999,32.089L285.002,44.068L285.003,44.078L285.005,44.103L285.008,44.128L285.012,44.153L285.016,44.178L285.02,44.202L285.026,44.227L285.032,44.251L285.038,44.274L285.045,44.297L285.053,44.321L285.061,44.344L285.069,44.365L285.078,44.388L285.088,44.411L285.098,44.433L285.109,44.454L285.12,44.475L285.132,44.496L285.144,44.517L285.157,44.537L285.171,44.558L285.185,44.578L285.198,44.597L285.213,44.616L285.228,44.635L285.244,44.654L285.26,44.672L285.276,44.689L285.293,44.707L285.311,44.724L285.328,44.74L285.346,44.756L285.365,44.772L285.383,44.787L285.403,44.802L285.422,44.816L285.442,44.83L285.462,44.843L285.483,44.856L285.504,44.868L285.525,44.88L285.546,44.891L285.568,44.902L285.589,44.912L285.611,44.922L285.634,44.931L285.657,44.94L285.68,44.948L285.703,44.955L285.726,44.962L285.75,44.968L285.774,44.974L285.798,44.98L285.822,44.984L285.847,44.988L285.872,44.992L285.897,44.995L285.922,44.997L285.948,44.999L285.974,45L286.006,45L294.994,45L295.026,45L295.052,44.999L295.078,44.997L295.103,44.995L295.128,44.992L295.153,44.988L295.178,44.984L295.202,44.98L295.226,44.974L295.25,44.968L295.274,44.962L295.297,44.955L295.32,44.948L295.343,44.94L295.366,44.931L295.389,44.922L295.411,44.912L295.432,44.902L295.454,44.891L295.475,44.88L295.496,44.868L295.517,44.856L295.538,44.843L295.558,44.83L295.578,44.816L295.597,44.802L295.617,44.787L295.635,44.772L295.654,44.756L295.672,44.74L295.689,44.724L295.707,44.707L295.724,44.689L295.74,44.672L295.756,44.654L295.772,44.635L295.787,44.616L295.802,44.597L295.815,44.578L295.829,44.558L295.843,44.537L295.856,44.517L295.868,44.496L295.88,44.475L295.891,44.454L295.902,44.433L295.912,44.411L295.922,44.388L295.931,44.365L295.939,44.344L295.947,44.321L295.955,44.297L295.962,44.274L295.968,44.251L295.974,44.227L295.98,44.202L295.984,44.178L295.988,44.153L295.992,44.128L295.995,44.103L295.997,44.078L295.998,44.068L294.001,32.089L294,31.974L293.999,31.947L293.997,31.922L293.995,31.897L293.992,31.872L293.988,31.847L293.984,31.822L293.98,31.798L293.974,31.773L293.968,31.749L293.962,31.726L293.955,31.703L293.947,31.679L293.939,31.656L293.931,31.635L293.922,31.612L293.912,31.589L293.902,31.567L293.891,31.546L293.88,31.525L293.868,31.504L293.856,31.483L293.843,31.463L293.829,31.442L293.815,31.422L293.802,31.403L293.787,31.384L293.772,31.365L293.756,31.346L293.74,31.328L293.724,31.311L293.707,31.293L293.689,31.276L293.672,31.26L293.654,31.244L293.635,31.228L293.617,31.213L293.597,31.198L293.578,31.184L293.558,31.17L293.538,31.157L293.517,31.144L293.496,31.132L293.475,31.12L293.454,31.109L293.432,31.098L293.411,31.088L293.389,31.078L293.366,31.069L293.343,31.06L293.32,31.052L293.297,31.045L293.274,31.038L293.25,31.032L293.226,31.026L293.202,31.02L293.178,31.016L293.153,31.012L293.128,31.008L293.103,31.005L293.078,31.003L293.052,31.001L293.026,31L292.994,31L288.006,31Z" style="fill:white;"/>
            </g>
        </g>
        <g transform="matrix(0.99496,0,0,1.02337,778.929,11.4674)">
            <g transform="matrix(1.00507,0,0,0.977163,-2307.56,-17.0685)">
                <path d="M2546,63L2546,57L2545,55L2548,55L2547,57L2547,63L2552,63L2552,64L2541,64L2541,63L2546,63Z" style="fill:white;"/>
            </g>
        </g>
    </g>
</svg>
