<?xml version="1.0" encoding="UTF-8" standalone="no"?>
<!DOCTYPE svg PUBLIC "-//W3C//DTD SVG 1.1//EN" "http://www.w3.org/Graphics/SVG/1.1/DTD/svg11.dtd">
<svg width="100%" height="100%" viewBox="0 0 8 8" version="1.1" xmlns="http://www.w3.org/2000/svg" xmlns:xlink="http://www.w3.org/1999/xlink" xml:space="preserve" xmlns:serif="http://www.serif.com/" style="fill-rule:evenodd;clip-rule:evenodd;stroke-linejoin:round;stroke-miterlimit:2;">
    <g transform="matrix(1,0,0,1,-3287,-12)">
        <g transform="matrix(0.99496,0,0,1.01353,1995.93,21.2706)">
            <g transform="matrix(0.502533,0,0,0.877023,639.292,-23.1792)">
                <path d="M1324.1,16.001L1324.2,16.006L1324.3,16.013L1324.4,16.023L1324.5,16.035L1324.59,16.051L1324.69,16.068L1324.78,16.088L1324.87,16.111L1324.95,16.136L1325.04,16.163L1325.12,16.192L1325.2,16.224L1325.27,16.257L1325.34,16.292L1325.41,16.33L1325.48,16.369L1325.54,16.41L1325.6,16.452L1325.66,16.496L1325.71,16.542L1325.76,16.589L1325.8,16.637L1325.84,16.687L1325.88,16.738L1325.91,16.791L1325.94,16.844L1325.96,16.898L1325.98,16.954L1325.99,17.01L1326,17.067L1326,17.125L1326,23.875L1326,23.933L1325.99,23.99L1325.98,24.046L1325.96,24.102L1325.94,24.156L1325.91,24.209L1325.88,24.262L1325.84,24.313L1325.8,24.363L1325.76,24.411L1325.71,24.458L1325.66,24.504L1325.6,24.548L1325.54,24.59L1325.48,24.631L1325.41,24.67L1325.34,24.708L1325.27,24.743L1325.2,24.776L1325.12,24.808L1325.04,24.837L1324.95,24.864L1324.87,24.889L1324.78,24.912L1324.69,24.932L1324.59,24.949L1324.5,24.965L1324.4,24.977L1324.3,24.987L1324.2,24.994L1324.1,24.999L1324,25L1312,25L1311.9,24.999L1311.8,24.994L1311.7,24.987L1311.6,24.977L1311.5,24.965L1311.41,24.949L1311.31,24.932L1311.22,24.912L1311.13,24.889L1311.05,24.864L1310.96,24.837L1310.88,24.808L1310.8,24.776L1310.73,24.743L1310.66,24.708L1310.59,24.67L1310.52,24.631L1310.46,24.59L1310.4,24.548L1310.34,24.504L1310.29,24.458L1310.24,24.411L1310.2,24.363L1310.16,24.313L1310.12,24.262L1310.09,24.209L1310.06,24.156L1310.04,24.102L1310.02,24.046L1310.01,23.99L1310,23.933L1310,23.875L1310,17.125L1310,17.067L1310.01,17.01L1310.02,16.954L1310.04,16.898L1310.06,16.844L1310.09,16.791L1310.12,16.738L1310.16,16.687L1310.2,16.637L1310.24,16.589L1310.29,16.542L1310.34,16.496L1310.4,16.452L1310.46,16.41L1310.52,16.369L1310.59,16.33L1310.66,16.292L1310.73,16.257L1310.8,16.224L1310.88,16.192L1310.96,16.163L1311.05,16.136L1311.13,16.111L1311.22,16.088L1311.31,16.068L1311.41,16.051L1311.5,16.035L1311.6,16.023L1311.7,16.013L1311.8,16.006L1311.9,16.001L1312,16L1324,16L1324.1,16.001ZM1312.03,17.125L1312,17.125L1312,17.125L1312,17.14L1312,23.86L1312,23.875L1312.03,23.875L1323.98,23.875L1324,23.875L1324,23.874L1324,23.862L1324,17.138L1324,17.126L1324,17.125L1323.98,17.125L1312.03,17.125Z" style="fill:white;fill-opacity:0;"/>
            </g>
        </g>
        <g transform="matrix(0.99496,0,0,1.01353,1995.93,21.2706)">
            <g transform="matrix(0.502533,0,0,0.98665,654.368,-25.9199)">
                <path d="M1296,24.5C1296,24.224 1295.55,24 1295,24L1281,24C1280.45,24 1280,24.224 1280,24.5C1280,24.776 1280.45,25 1281,25L1295,25C1295.55,25 1296,24.776 1296,24.5Z" style="fill:white;"/>
            </g>
        </g>
    </g>
</svg>
