<?xml version="1.0" encoding="UTF-8" standalone="no"?>
<!DOCTYPE svg PUBLIC "-//W3C//DTD SVG 1.1//EN" "http://www.w3.org/Graphics/SVG/1.1/DTD/svg11.dtd">
<svg width="100%" height="100%" viewBox="0 0 14 15" version="1.1" xmlns="http://www.w3.org/2000/svg" xmlns:xlink="http://www.w3.org/1999/xlink" xml:space="preserve" xmlns:serif="http://www.serif.com/" style="fill-rule:evenodd;clip-rule:evenodd;stroke-linejoin:round;stroke-miterlimit:2;">
    <g transform="matrix(1,0,0,1,-958,-800)">
        <g transform="matrix(0.99496,0,0,1.01353,564.929,21.2706)">
            <g transform="matrix(0.804052,0,0,0.98665,-2650.69,-20)">
                <path d="M3793,814L3788,814L3788,799L3793,799L3793,814ZM3789.25,800L3789.25,813L3791.75,813L3791.75,800L3789.25,800Z" style="fill:white;fill-rule:nonzero;"/>
            </g>
        </g>
        <g transform="matrix(0.99496,0,0,1.01353,564.929,21.2706)">
            <g transform="matrix(0.804052,0,0,0.98665,-2645.66,-20)">
                <path d="M3793,814L3788,814L3788,799L3793,799L3793,814ZM3789.25,800L3789.25,813L3791.75,813L3791.75,800L3789.25,800Z" style="fill:white;fill-rule:nonzero;"/>
            </g>
        </g>
        <g transform="matrix(0.99496,0,0,1.01353,564.929,21.2706)">
            <g transform="matrix(0.804052,0,0,0.98665,-2640.64,-20)">
                <path d="M3793,814L3788,814L3788,799L3793,799L3793,814ZM3789.25,800L3789.25,813L3791.75,813L3791.75,804L3791.75,800L3789.25,800Z" style="fill:white;fill-rule:nonzero;"/>
            </g>
        </g>
        <g transform="matrix(0.99496,0,0,1.01353,564.929,21.2706)">
            <g transform="matrix(0.502533,0,0,0.98665,-1508.03,-18.0267)">
                <rect x="3789" y="801" width="4" height="1" style="fill:white;"/>
            </g>
        </g>
        <g transform="matrix(0.99496,0,0,1.01353,564.929,21.2706)">
            <g transform="matrix(0.502533,0,0,0.98665,-1503,-12.1068)">
                <rect x="3789" y="801" width="4" height="1" style="fill:white;"/>
            </g>
        </g>
        <g transform="matrix(0.99496,0,0,1.01353,564.929,21.2706)">
            <g transform="matrix(0.502533,0,0,0.98665,-1497.98,-18.0267)">
                <rect x="3789" y="801" width="4" height="1" style="fill:white;"/>
            </g>
        </g>
    </g>
</svg>
