<?xml version="1.0" encoding="UTF-8" standalone="no"?>
<!DOCTYPE svg PUBLIC "-//W3C//DTD SVG 1.1//EN" "http://www.w3.org/Graphics/SVG/1.1/DTD/svg11.dtd">
<svg width="100%" height="100%" viewBox="0 0 9 9" version="1.1" xmlns="http://www.w3.org/2000/svg" xmlns:xlink="http://www.w3.org/1999/xlink" xml:space="preserve" xmlns:serif="http://www.serif.com/" style="fill-rule:evenodd;clip-rule:evenodd;stroke-linejoin:round;stroke-miterlimit:2;">
    <g transform="matrix(1,0,0,1,-1458,-55)">
        <g transform="matrix(0.99496,0,0,1.01353,235.929,21.2706)">
            <g transform="matrix(1,0,0,1,371.874,-3.55271e-15)">
                <g transform="matrix(0.804052,0,0,0.822209,-1424.71,-10.2979)">
                    <path d="M2842,59L2837,56L2842,53L2842,59ZM2839.36,56L2840.75,56.835L2840.75,55.165L2839.36,56Z" style="fill:white;"/>
                </g>
                <g transform="matrix(0.804052,0,0,0.98665,-1424.71,-20.9867)">
                    <rect x="2842" y="57" width="5" height="1" style="fill:white;"/>
                </g>
                <g transform="matrix(-0.804052,0,0,0.822209,3146.53,-6.35133)">
                    <path d="M2837,56L2842,59L2842,53L2837,56ZM2840.75,56.835L2839.36,56L2840.75,55.165L2840.75,56.835Z" style="fill:white;"/>
                </g>
                <g transform="matrix(-0.804052,0,0,0.98665,3146.53,-17.04)">
                    <rect x="2842" y="57" width="5" height="1" style="fill:white;"/>
                </g>
            </g>
        </g>
    </g>
</svg>
