<?xml version="1.0" encoding="UTF-8" standalone="no"?>
<!DOCTYPE svg PUBLIC "-//W3C//DTD SVG 1.1//EN" "http://www.w3.org/Graphics/SVG/1.1/DTD/svg11.dtd">
<svg width="100%" height="100%" viewBox="0 0 11 11" version="1.1" xmlns="http://www.w3.org/2000/svg" xmlns:xlink="http://www.w3.org/1999/xlink" xml:space="preserve" xmlns:serif="http://www.serif.com/" style="fill-rule:evenodd;clip-rule:evenodd;stroke-linejoin:round;stroke-miterlimit:2;">
    <g transform="matrix(1,0,0,1,-3611,-479)">
        <g transform="matrix(0.99496,0,0,1.01353,2991.93,401.271)">
            <g transform="matrix(1,0,0,1,-5.02533,0)">
                <g transform="matrix(1.00507,0,0,0.98665,-2016.09,-19.0133)">
                    <path d="M2633,100L2630,100L2630,97L2633,97L2633,100ZM2631,98L2631,99L2632,99L2632,98L2631,98Z" style="fill:white;"/>
                </g>
                <g transform="matrix(1.00507,0,0,0.98665,-2008.05,-19.0133)">
                    <path d="M2633,100L2630,100L2630,97L2633,97L2633,100ZM2631,98L2631,99L2632,99L2632,98L2631,98Z" style="fill:white;"/>
                </g>
                <g transform="matrix(1.00507,0,0,0.98665,-2012.07,-19.0133)">
                    <path d="M2633,100L2630,100L2630,97L2633,97L2633,100ZM2631,98L2631,99L2632,99L2632,98L2631,98Z" style="fill:white;"/>
                </g>
                <g transform="matrix(1.00507,0,0,0.98665,-2012.07,-15.0667)">
                    <path d="M2633,100L2630,100L2630,97L2633,97L2633,100ZM2631,98L2631,99L2632,99L2632,98L2631,98Z" style="fill:white;"/>
                </g>
                <g transform="matrix(1.00507,0,0,0.98665,-2016.09,-15.0667)">
                    <path d="M2633,100L2630,100L2630,97L2633,97L2633,100ZM2631,98L2631,99L2632,99L2632,98L2631,98Z" style="fill:white;"/>
                </g>
                <g transform="matrix(1.00507,0,0,0.98665,-2008.05,-11.1201)">
                    <path d="M2633,100L2630,100L2630,97L2633,97L2633,100ZM2631,98L2631,99L2632,99L2632,98L2631,98Z" style="fill:white;"/>
                </g>
                <g transform="matrix(1.00507,0,0,0.98665,-2008.05,-15.0667)">
                    <path d="M2633,100L2630,100L2630,97L2633,97L2633,100ZM2631,98L2631,99L2632,99L2632,98L2631,98Z" style="fill:white;"/>
                </g>
                <g transform="matrix(1.00507,0,0,0.98665,-2016.09,-11.1201)">
                    <path d="M2633,100L2630,100L2630,97L2633,97L2633,100ZM2631,98L2631,99L2632,99L2632,98L2631,98Z" style="fill:white;"/>
                </g>
                <g transform="matrix(1.00507,0,0,0.98665,-2012.07,-11.1201)">
                    <path d="M2633,100L2630,100L2630,97L2633,97L2633,100ZM2631,98L2631,99L2632,99L2632,98L2631,98Z" style="fill:white;"/>
                </g>
            </g>
        </g>
    </g>
</svg>
