<?xml version="1.0" encoding="UTF-8" standalone="no"?>
<!DOCTYPE svg PUBLIC "-//W3C//DTD SVG 1.1//EN" "http://www.w3.org/Graphics/SVG/1.1/DTD/svg11.dtd">
<svg width="100%" height="100%" viewBox="0 0 15 15" version="1.1" xmlns="http://www.w3.org/2000/svg" xmlns:xlink="http://www.w3.org/1999/xlink" xml:space="preserve" xmlns:serif="http://www.serif.com/" style="fill-rule:evenodd;clip-rule:evenodd;stroke-linejoin:round;stroke-miterlimit:2;">
    <g transform="matrix(1,0,0,1,-853,-800)">
        <g transform="matrix(0.99496,0,0,1.01353,584.929,21.2706)">
            <g transform="matrix(1,0,0,1,-214.079,-3.9466)">
                <g transform="matrix(0.861484,0,0,0.98665,-1661.59,-19.0133)">
                    <path d="M2497,805L2490,805L2490,802L2497,802L2497,805ZM2491.17,803L2491.17,804L2495.83,804L2495.83,803L2491.17,803Z" style="fill:white;"/>
                </g>
                <g transform="matrix(0.861484,0,0,0.98665,-1652.54,-19.0133)">
                    <path d="M2497,805L2490,805L2490,802L2497,802L2497,805ZM2491.17,803L2491.17,804L2495.83,804L2495.83,803L2491.17,803Z" style="fill:white;"/>
                </g>
                <g transform="matrix(0.861484,0,0,0.98665,-1652.54,-11.1201)">
                    <path d="M2497,805L2490,805L2490,802L2497,802L2497,805ZM2491.17,803L2491.17,804L2495.83,804L2495.83,803L2491.17,803Z" style="fill:white;"/>
                </g>
                <g transform="matrix(0.861484,0,0,0.98665,-1652.54,-7.17354)">
                    <path d="M2497,805L2490,805L2490,802L2497,802L2497,805ZM2491.17,803L2491.17,804L2495.83,804L2495.83,803L2491.17,803Z" style="fill:white;"/>
                </g>
                <g transform="matrix(0.861484,0,0,0.98665,-1657.57,-15.0667)">
                    <path d="M2497,805L2490,805L2490,802L2497,802L2497,805ZM2491.17,803L2491.17,804L2495.83,804L2495.83,803L2491.17,803Z" style="fill:white;"/>
                </g>
                <g transform="matrix(0.861484,0,0,0.98665,-1661.59,-7.17354)">
                    <path d="M2497,805L2490,805L2490,802L2497,802L2497,805ZM2491.17,803L2491.17,804L2495.83,804L2495.83,803L2491.17,803Z" style="fill:white;"/>
                </g>
            </g>
        </g>
    </g>
</svg>
