<?xml version="1.0" encoding="UTF-8" standalone="no"?>
<!DOCTYPE svg PUBLIC "-//W3C//DTD SVG 1.1//EN" "http://www.w3.org/Graphics/SVG/1.1/DTD/svg11.dtd">
<svg width="100%" height="100%" viewBox="0 0 16 16" version="1.1" xmlns="http://www.w3.org/2000/svg" xmlns:xlink="http://www.w3.org/1999/xlink" xml:space="preserve" xmlns:serif="http://www.serif.com/" style="fill-rule:evenodd;clip-rule:evenodd;stroke-linejoin:round;stroke-miterlimit:2;">
    <g transform="matrix(1,0,0,1,-1142,-45)">
        <g transform="matrix(0.99496,0,0,1.01353,487.929,21.2706)">
            <g transform="matrix(1.00507,0,0,0.822209,130.729,-0.431432)">
                <path d="M532.866,35L524,41L524,29C527.333,31 529.532,33 532.866,35ZM525,39.058L530.63,35L525,30.942L525,39.058Z" style="fill:white;fill-rule:nonzero;"/>
            </g>
        </g>
        <g transform="matrix(0.99496,0,0,1.01353,487.929,21.2706)">
            <g transform="matrix(1.00507,0,0,0.98665,144.8,-6.18689)">
                <path d="M521.5,37C519,37 517,39 517,41.5C517,44 519,46 521.5,46C524,46 526,44 526,41.5C526,39 524,37 521.5,37ZM521.5,38C523.432,38 525,39.568 525,41.5C525,43.432 523.432,45 521.5,45C519.568,45 518,43.432 518,41.5C518,39.568 519.568,38 521.5,38Z" style="fill:white;fill-rule:nonzero;"/>
            </g>
        </g>
    </g>
</svg>
