<?xml version="1.0" encoding="UTF-8" standalone="no"?>
<!DOCTYPE svg PUBLIC "-//W3C//DTD SVG 1.1//EN" "http://www.w3.org/Graphics/SVG/1.1/DTD/svg11.dtd">
<svg width="100%" height="100%" viewBox="0 0 15 15" version="1.1" xmlns="http://www.w3.org/2000/svg" xmlns:xlink="http://www.w3.org/1999/xlink" xml:space="preserve" xmlns:serif="http://www.serif.com/" style="fill-rule:evenodd;clip-rule:evenodd;stroke-linejoin:round;stroke-miterlimit:2;">
    <g transform="matrix(1,0,0,1,-923,-800)">
        <g transform="matrix(0.99496,0,0,1.01353,584.929,21.2706)">
            <g transform="matrix(1.00507,0,0,0.98665,-3118.65,158.584)">
                <path d="M3447,627L3450,627L3450,632L3455,632L3455,619L3450,619L3450,624L3447,624L3447,627ZM3442,632L3446,632L3446,630L3447,630L3447,633L3441,633L3441,618L3447,618L3447,621L3446,621L3446,619L3442,619L3442,632ZM3456,633L3449,633L3449,628L3447,628L3446,628L3446,623L3449,623L3449,618L3456,618L3456,633Z" style="fill:white;"/>
            </g>
        </g>
    </g>
</svg>
