<?xml version="1.0" encoding="UTF-8" standalone="no"?>
<!DOCTYPE svg PUBLIC "-//W3C//DTD SVG 1.1//EN" "http://www.w3.org/Graphics/SVG/1.1/DTD/svg11.dtd">
<svg width="100%" height="100%" viewBox="0 0 12 12" version="1.1" xmlns="http://www.w3.org/2000/svg" xmlns:xlink="http://www.w3.org/1999/xlink" xml:space="preserve" xmlns:serif="http://www.serif.com/" style="fill-rule:evenodd;clip-rule:evenodd;stroke-linejoin:round;stroke-miterlimit:2;">
    <g transform="matrix(1,0,0,1,-1113,-47)">
        <g transform="matrix(0.99496,0,0,1.01353,487.929,21.2706)">
            <g transform="matrix(1.00507,0,0,0.98665,148.821,-6.18689)">
                <path d="M483,32C479.7,32 477,34.7 477,38C477,41.3 479.7,44 483,44C486.3,44 489,41.3 489,38C489,34.7 486.3,32 483,32ZM483,33C485.76,33 488,35.24 488,38C488,40.76 485.76,43 483,43C480.24,43 478,40.76 478,38C478,35.24 480.24,33 483,33Z" style="fill:white;fill-rule:nonzero;"/>
            </g>
        </g>
    </g>
</svg>
