<?xml version="1.0" encoding="UTF-8" standalone="no"?>
<!DOCTYPE svg PUBLIC "-//W3C//DTD SVG 1.1//EN" "http://www.w3.org/Graphics/SVG/1.1/DTD/svg11.dtd">
<svg width="100%" height="100%" viewBox="0 0 16 15" version="1.1" xmlns="http://www.w3.org/2000/svg" xmlns:xlink="http://www.w3.org/1999/xlink" xml:space="preserve" xmlns:serif="http://www.serif.com/" style="fill-rule:evenodd;clip-rule:evenodd;stroke-linejoin:round;stroke-miterlimit:2;">
    <g transform="matrix(1,0,0,1,-745,-45)">
        <g transform="matrix(0.99496,0,0,1.01353,318.929,21.2706)">
            <g id="share" transform="matrix(0.0420419,0,0,0.0412717,424.223,21.834)">
                <path d="M454.219,229.5L262.969,396.844L262.969,301.219L260.093,301.234L257.249,301.278L254.438,301.352L251.659,301.454L248.911,301.584L246.196,301.742L243.512,301.928L240.86,302.14L238.239,302.379L235.649,302.644L233.09,302.935L230.562,303.25L228.064,303.591L225.597,303.956L223.159,304.345L220.752,304.758L218.374,305.193L216.026,305.651L213.707,306.132L211.417,306.634L209.157,307.158L206.925,307.702L204.722,308.267L202.547,308.852L200.401,309.457L198.283,310.081L196.192,310.724L194.129,311.385L192.094,312.065L190.086,312.761L188.105,313.475L186.152,314.206L184.224,314.952L182.324,315.715L180.45,316.493L178.602,317.286L176.78,318.093L174.984,318.914L173.213,319.75L171.469,320.598L169.749,321.459L168.054,322.333L166.384,323.218L164.739,324.115L163.119,325.023L161.523,325.942L159.951,326.871L158.403,327.81L156.878,328.759L155.378,329.716L153.9,330.682L152.446,331.656L151.015,332.637L149.607,333.626L148.221,334.622L146.858,335.624L144.198,337.645L141.626,339.687L139.14,341.746L136.739,343.819L134.421,345.902L132.184,347.992L130.028,350.085L127.95,352.177L125.949,354.267L124.024,356.349L122.173,358.421L120.395,360.479L118.688,362.521L117.051,364.541L115.482,366.537L113.979,368.506L112.542,370.444L111.168,372.348L109.856,374.214L108.605,376.039L107.414,377.819L106.28,379.551L104.179,382.858L102.291,385.931L100.604,388.744L97.785,393.479L96.628,395.347L96.108,396.143L95.625,396.844L95.529,385.383L95.414,373.982L95.315,362.655L95.283,357.024L95.269,351.418L95.277,345.837L95.312,340.284L95.378,334.761L95.481,329.27L95.623,323.812L95.811,318.39L96.048,313.005L96.34,307.659L96.69,302.354L97.103,297.092L97.335,294.478L97.584,291.875L97.851,289.284L98.137,286.704L98.442,284.137L98.767,281.582L99.112,279.04L99.478,276.511L99.866,273.995L100.275,271.492L100.708,269.002L101.163,266.527L101.642,264.065L102.146,261.618L102.674,259.185L103.228,256.767L103.808,254.364L104.414,251.976L105.048,249.603L105.709,247.246L106.398,244.905L107.117,242.58L107.865,240.272L108.642,237.98L109.451,235.704L110.29,233.446L111.161,231.205L112.065,228.982L113.001,226.777L113.971,224.589L114.974,222.42L116.013,220.269L117.086,218.137L118.195,216.024L119.34,213.93L120.522,211.855L121.741,209.8L122.999,207.765L124.294,205.75L125.629,203.755L127.004,201.781L128.418,199.828L129.874,197.896L131.371,195.985L132.909,194.095L134.491,192.228L136.115,190.382L137.783,188.558L139.495,186.757L141.252,184.979L143.054,183.223L144.902,181.491L146.796,179.782L148.738,178.097L150.727,176.435L152.764,174.798L154.85,173.185L156.985,171.597L159.171,170.033L161.406,168.494L163.693,166.981L166.031,165.493L168.421,164.031L170.864,162.595L173.36,161.185L175.91,159.801L178.515,158.444L181.174,157.114L183.889,155.811L186.66,154.536L189.488,153.288L192.373,152.068L195.316,150.876L198.317,149.712L201.377,148.577L204.497,147.471L207.677,146.394L210.917,145.346L214.219,144.327L217.582,143.338L221.008,142.379L224.497,141.451L228.049,140.552L231.665,139.685L235.346,138.848L239.092,138.042L242.904,137.268L246.782,136.525L250.727,135.814L254.739,135.136L258.82,134.489L262.969,133.875L262.969,38.25L454.219,229.5ZM286.875,154.504L262.44,158.12L258.604,158.728L254.841,159.364L251.15,160.029L247.532,160.722L243.985,161.443L240.509,162.19L237.104,162.964L233.768,163.765L230.502,164.591L227.305,165.442L224.177,166.317L221.115,167.218L218.118,168.142L215.191,169.089L212.329,170.059L209.53,171.052L206.795,172.066L204.125,173.101L201.517,174.157L198.972,175.234L196.484,176.332L194.059,177.448L191.693,178.583L189.384,179.738L187.135,180.909L184.94,182.101L182.801,183.308L180.72,184.532L178.686,185.776L176.708,187.035L174.782,188.31L172.905,189.602L171.077,190.91L169.298,192.233L167.565,193.573L165.877,194.929L164.238,196.299L162.639,197.687L161.085,199.088L159.571,200.508L158.096,201.944L156.665,203.393L155.269,204.862L153.91,206.347L152.588,207.85L151.301,209.37L150.051,210.904L148.836,212.456L147.648,214.033L146.494,215.626L145.375,217.233L144.284,218.864L143.223,220.513L142.192,222.183L141.189,223.874L140.213,225.585L139.269,227.312L138.35,229.065L137.454,230.843L136.589,232.634L135.749,234.452L134.933,236.291L134.143,238.153L133.377,240.037L132.637,241.943L131.917,243.877L131.226,245.823L130.556,247.796L129.909,249.792L129.286,251.811L128.685,253.852L128.106,255.914L127.548,258.004L127.013,260.112L126.5,262.236L126.008,264.387L125.535,266.564L125.084,268.758L124.653,270.973L124.241,273.213L123.848,275.47L123.477,277.742L123.123,280.044L122.787,282.36L122.47,284.697L122.169,287.058L121.887,289.433L121.622,291.826L121.373,294.238L121.14,296.674L120.926,299.084L120.535,304.076L120.203,309.097L119.926,314.183L119.699,319.33L119.519,324.537L119.449,327.216L120.937,325.878L123.704,323.49L126.567,321.119L129.531,318.765L132.543,316.476L134.167,315.282L135.764,314.135L137.383,312.998L139.032,311.867L140.706,310.746L142.408,309.633L144.136,308.53L145.89,307.44L147.671,306.359L149.479,305.291L151.309,304.238L153.172,303.193L155.061,302.163L156.975,301.148L158.92,300.146L160.89,299.159L162.887,298.188L164.911,297.233L166.966,296.293L169.047,295.372L171.154,294.467L173.291,293.581L175.454,292.713L177.647,291.863L179.868,291.033L182.116,290.223L184.391,289.433L186.696,288.664L189.031,287.915L191.392,287.19L193.78,286.486L196.199,285.804L198.645,285.146L201.122,284.511L203.626,283.9L206.158,283.313L208.721,282.751L211.312,282.214L213.931,281.703L216.58,281.218L219.257,280.759L221.964,280.327L224.7,279.923L227.463,279.545L230.259,279.196L233.084,278.875L235.938,278.583L238.821,278.32L241.735,278.087L244.677,277.884L247.65,277.711L250.653,277.568L253.686,277.457L256.75,277.377L259.845,277.328L286.751,277.188L286.875,277.312L286.875,344.16L419.246,228.336L286.875,95.965L286.875,154.504Z" style="fill:white;"/>
            </g>
        </g>
    </g>
</svg>
