<?xml version="1.0" encoding="UTF-8" standalone="no"?>
<!DOCTYPE svg PUBLIC "-//W3C//DTD SVG 1.1//EN" "http://www.w3.org/Graphics/SVG/1.1/DTD/svg11.dtd">
<svg width="100%" height="100%" viewBox="0 0 16 16" version="1.1" xmlns="http://www.w3.org/2000/svg" xmlns:xlink="http://www.w3.org/1999/xlink" xml:space="preserve" xmlns:serif="http://www.serif.com/" style="fill-rule:evenodd;clip-rule:evenodd;stroke-linejoin:round;stroke-miterlimit:2;">
    <g transform="matrix(1,0,0,1,-676,-45)">
        <g transform="matrix(0.99496,0,0,1.01353,318.929,21.2706)">
            <g transform="matrix(1.00507,0,0,0.98665,-1849.25,-20.9867)">
                <path d="M2204,55L2203.08,55L2205,57.399L2206.92,55L2206,55L2206,54L2209,54L2205,59L2201,54L2204,54L2204,55ZM2207,45L2207,54L2206,54L2206,46L2204,46L2204,54L2203,54L2203,45L2207,45Z" style="fill:white;"/>
            </g>
        </g>
        <g transform="matrix(0.99496,0,0,1.01353,318.929,21.2706)">
            <g transform="matrix(1.00507,0,0,0.98665,-1849.25,-20.9867)">
                <path d="M2213,61L2197,61L2197,60L2213,60L2213,61ZM2198,60L2197,60L2197,56L2198,56L2198,60ZM2213,60L2212,60L2212,56L2213,56L2213,60Z" style="fill:white;"/>
            </g>
        </g>
    </g>
</svg>
