<?xml version="1.0" encoding="UTF-8" standalone="no"?>
<!DOCTYPE svg PUBLIC "-//W3C//DTD SVG 1.1//EN" "http://www.w3.org/Graphics/SVG/1.1/DTD/svg11.dtd">
<svg width="100%" height="100%" viewBox="0 0 16 15" version="1.1" xmlns="http://www.w3.org/2000/svg" xmlns:xlink="http://www.w3.org/1999/xlink" xml:space="preserve" xmlns:serif="http://www.serif.com/" style="fill-rule:evenodd;clip-rule:evenodd;stroke-linejoin:round;stroke-miterlimit:2;">
    <g transform="matrix(1,0,0,1,-710,-45)">
        <g transform="matrix(0.99496,0,0,1.01353,318.929,21.2706)">
            <g id="share" transform="matrix(-0.0420419,0,0,0.0412717,412.148,21.834)">
                <path d="M262.969,133.875L258.82,134.489L254.739,135.136L250.727,135.814L246.782,136.525L242.904,137.268L239.092,138.042L235.346,138.848L231.665,139.685L228.049,140.552L224.497,141.451L221.008,142.379L217.582,143.338L214.219,144.327L210.917,145.346L207.677,146.394L204.497,147.471L201.377,148.577L198.317,149.712L195.316,150.876L192.373,152.068L189.488,153.288L186.66,154.536L183.889,155.811L181.174,157.114L178.515,158.444L175.91,159.801L173.36,161.185L170.864,162.595L168.421,164.031L166.031,165.493L163.693,166.981L161.406,168.494L159.171,170.033L156.985,171.597L154.85,173.185L152.764,174.798L150.727,176.435L148.738,178.097L146.796,179.782L144.902,181.491L143.054,183.223L141.252,184.979L139.495,186.757L137.783,188.558L136.115,190.382L134.491,192.228L132.909,194.095L131.371,195.985L129.874,197.896L128.418,199.828L127.004,201.781L125.629,203.755L124.294,205.75L122.999,207.765L121.741,209.8L120.522,211.855L119.34,213.93L118.195,216.024L117.086,218.137L116.013,220.269L114.974,222.42L113.971,224.589L113.001,226.777L112.065,228.982L111.161,231.205L110.29,233.446L109.451,235.704L108.642,237.98L107.865,240.272L107.117,242.58L106.398,244.905L105.709,247.246L105.048,249.603L104.414,251.976L103.808,254.364L103.228,256.767L102.674,259.185L102.146,261.618L101.642,264.065L101.163,266.527L100.708,269.002L100.275,271.492L99.866,273.995L99.478,276.511L99.112,279.04L98.767,281.582L98.442,284.137L98.137,286.704L97.851,289.284L97.584,291.875L97.335,294.478L97.103,297.092L96.69,302.354L96.34,307.659L96.048,313.005L95.811,318.39L95.623,323.812L95.481,329.27L95.378,334.761L95.312,340.284L95.277,345.837L95.269,351.418L95.283,357.024L95.315,362.655L95.414,373.982L95.529,385.383L95.625,396.844L96.108,396.143L96.628,395.347L97.785,393.479L100.604,388.744L102.291,385.931L104.179,382.858L106.28,379.551L107.414,377.819L108.605,376.039L109.856,374.214L111.168,372.348L112.542,370.444L113.979,368.506L115.482,366.537L117.051,364.541L118.688,362.521L120.395,360.479L122.173,358.421L124.024,356.349L125.949,354.267L127.95,352.177L130.028,350.085L132.184,347.992L134.421,345.902L136.739,343.819L139.14,341.746L141.626,339.687L144.198,337.645L146.858,335.624L148.221,334.622L149.607,333.626L151.015,332.637L152.446,331.656L153.9,330.682L155.378,329.716L156.878,328.759L158.403,327.81L159.951,326.871L161.523,325.942L163.119,325.023L164.739,324.115L166.384,323.218L168.054,322.333L169.749,321.459L171.469,320.598L173.213,319.75L174.984,318.914L176.78,318.093L178.602,317.286L180.45,316.493L182.324,315.715L184.224,314.952L186.152,314.206L188.105,313.475L190.086,312.761L192.094,312.065L194.129,311.385L196.192,310.724L198.283,310.081L200.401,309.457L202.547,308.852L204.722,308.267L206.925,307.702L209.157,307.158L211.417,306.634L213.707,306.132L216.026,305.651L218.374,305.193L220.752,304.758L223.159,304.345L225.597,303.956L228.064,303.591L230.562,303.25L233.09,302.935L235.649,302.644L238.239,302.379L240.86,302.14L243.512,301.928L246.196,301.742L248.911,301.584L251.659,301.454L254.438,301.352L257.249,301.278L260.093,301.234L262.969,301.219L262.969,396.844L454.219,229.5L262.969,38.25L262.969,133.875ZM419.245,228.336L286.875,344.16L286.875,277.312L286.75,277.188L259.844,277.328L256.75,277.377L253.687,277.457L250.653,277.568L247.649,277.711L244.677,277.884L241.734,278.087L238.822,278.32L235.937,278.583L233.083,278.875L230.259,279.196L227.465,279.545L224.7,279.922L221.964,280.327L219.256,280.759L216.579,281.218L213.93,281.703L211.31,282.214L208.72,282.751L206.159,283.313L203.627,283.9L201.122,284.511L198.647,285.145L196.199,285.804L193.781,286.486L191.391,287.19L189.03,287.916L186.698,288.663L184.392,289.432L182.115,290.223L179.867,291.033L177.644,291.863L175.454,292.713L173.292,293.58L171.153,294.467L169.044,295.373L166.964,296.294L164.915,297.232L162.887,298.188L160.887,299.161L158.92,300.146L156.979,301.146L155.061,302.163L153.173,303.193L151.312,304.236L149.475,305.293L147.669,306.361L145.89,307.44L144.137,308.53L142.409,309.633L140.71,310.743L139.031,311.867L137.384,312.998L135.763,314.135L134.164,315.285L132.543,316.476L129.532,318.765L126.567,321.119L123.704,323.49L120.94,325.876L119.449,327.216L119.519,324.539L119.699,319.327L119.925,314.181L120.203,309.097L120.534,304.078L120.927,299.082L121.14,296.669L121.372,294.243L121.622,291.831L121.888,289.433L122.171,287.053L122.47,284.697L122.787,282.36L123.122,280.044L123.476,277.747L123.85,275.465L124.241,273.208L124.652,270.973L125.083,268.758L125.535,266.564L126.006,264.392L126.499,262.241L127.014,260.107L127.549,257.999L128.104,255.92L128.684,253.857L129.287,251.811L129.91,249.792L130.557,247.796L131.226,245.823L131.92,243.872L132.636,241.943L133.378,240.037L134.143,238.153L134.933,236.291L135.748,234.452L136.59,232.634L137.456,230.839L138.347,229.069L139.267,227.316L140.216,225.58L141.188,223.874L142.192,222.183L143.223,220.513L144.282,218.868L145.376,217.233L146.497,215.622L147.648,214.033L148.833,212.46L150.052,210.904L151.304,209.367L152.59,207.847L153.909,206.347L155.265,204.865L156.662,203.396L158.1,201.941L159.57,200.508L161.083,199.091L162.639,197.687L164.238,196.299L165.88,194.927L167.565,193.573L169.299,192.233L171.078,190.908L172.904,189.602L174.779,188.311L176.708,187.035L178.687,185.775L180.717,184.534L182.802,183.308L184.939,182.101L187.135,180.909L189.385,179.737L191.691,178.584L194.059,177.448L196.485,176.331L198.97,175.235L201.517,174.157L204.125,173.101L206.795,172.066L209.53,171.051L212.327,170.059L215.191,169.089L218.12,168.142L221.115,167.218L224.176,166.317L227.304,165.442L230.502,164.591L233.769,163.765L237.103,162.965L240.509,162.19L243.985,161.443L247.531,160.722L251.151,160.029L254.84,159.364L258.604,158.728L262.44,158.12L286.875,154.504L286.875,95.965L419.245,228.336Z" style="fill:white;"/>
            </g>
        </g>
    </g>
</svg>
