<?xml version="1.0" encoding="UTF-8" standalone="no"?>
<!DOCTYPE svg PUBLIC "-//W3C//DTD SVG 1.1//EN" "http://www.w3.org/Graphics/SVG/1.1/DTD/svg11.dtd">
<svg width="100%" height="100%" viewBox="0 0 12 12" version="1.1" xmlns="http://www.w3.org/2000/svg" xmlns:xlink="http://www.w3.org/1999/xlink" xml:space="preserve" xmlns:serif="http://www.serif.com/" style="fill-rule:evenodd;clip-rule:evenodd;stroke-linejoin:round;stroke-miterlimit:2;">
    <g transform="matrix(1,0,0,1,-939,-198)">
        <g transform="matrix(0.99496,0,0,1.01353,584.929,21.2706)">
            <g transform="matrix(1.00507,0,0,0.98665,-0.93574,14.5329)">
                <path d="M364,174L359,171L356,171L355.949,170.999L355.898,170.995L355.848,170.988L355.799,170.98L355.75,170.968L355.703,170.955L355.656,170.939L355.611,170.921L355.567,170.901L355.524,170.879L355.482,170.855L355.441,170.829L355.402,170.801L355.364,170.772L355.328,170.74L355.293,170.707L355.26,170.672L355.228,170.636L355.199,170.598L355.171,170.559L355.145,170.518L355.121,170.476L355.099,170.433L355.079,170.389L355.061,170.344L355.045,170.297L355.032,170.25L355.02,170.201L355.012,170.152L355.005,170.102L355.001,170.051L355,170L355,166L355.001,165.949L355.005,165.898L355.012,165.848L355.02,165.799L355.032,165.75L355.045,165.703L355.061,165.656L355.079,165.611L355.099,165.567L355.121,165.524L355.145,165.482L355.171,165.441L355.199,165.402L355.228,165.364L355.26,165.328L355.293,165.293L355.328,165.26L355.364,165.228L355.402,165.199L355.441,165.171L355.482,165.145L355.523,165.121L355.567,165.099L355.611,165.079L355.656,165.061L355.703,165.045L355.75,165.032L355.799,165.02L355.848,165.012L355.898,165.005L355.949,165.001L356,165L359,165L364,162L364,174ZM359.515,165.858L359.455,165.89L359.394,165.919L359.331,165.944L359.267,165.964L359.201,165.98L359.135,165.991L359.068,165.998L359,166L356,166L356,170L359,170L359.068,170.002L359.135,170.009L359.201,170.02L359.267,170.036L359.331,170.057L359.394,170.081L359.455,170.11L359.515,170.143L363,172.234L363,163.766L359.515,165.858Z" style="fill:white;"/>
                <path d="M364,174L359,171L356,171L355.799,170.98L355.656,170.939L355.482,170.855L355.364,170.772L355.228,170.636L355.121,170.476L355.045,170.297L355.005,170.102L355,170L355,166L355.02,165.799L355.061,165.656L355.145,165.482L355.228,165.364L355.364,165.228L355.523,165.121L355.703,165.045L355.898,165.005L356,165L359,165L364,162L364,174ZM359.515,165.858L359.331,165.944L359.201,165.98L359.068,165.998L359,166L356,166L356,170L359,170L359.201,170.02L359.394,170.081L359.515,170.143L363,172.234L363,163.766L359.515,165.858Z" style="fill:white;"/>
            </g>
        </g>
        <g transform="matrix(0.99496,0,0,1.01353,584.929,21.2706)">
            <g transform="matrix(1.00507,0,0,0.98665,0.0709117,14.5328)">
                <path d="M364,165.06C365.141,165.338 366,166.55 366,168C366,169.45 365.141,170.662 364,170.94L364,169.908C364.676,169.653 365.167,168.895 365.167,168C365.167,167.105 364.676,166.347 364,166.092L364,165.06Z" style="fill:white;"/>
            </g>
        </g>
    </g>
</svg>
