<?xml version="1.0" encoding="UTF-8" standalone="no"?>
<!DOCTYPE svg PUBLIC "-//W3C//DTD SVG 1.1//EN" "http://www.w3.org/Graphics/SVG/1.1/DTD/svg11.dtd">
<svg width="100%" height="100%" viewBox="0 0 8 9" version="1.1" xmlns="http://www.w3.org/2000/svg" xmlns:xlink="http://www.w3.org/1999/xlink" xml:space="preserve" xmlns:serif="http://www.serif.com/" style="fill-rule:evenodd;clip-rule:evenodd;stroke-linejoin:round;stroke-miterlimit:2;">
    <g transform="matrix(1,0,0,1,-2699.8,-1382.59)">
        <g transform="matrix(0.918312,0,0,0.487395,217.697,663.311)">
            <g transform="matrix(1.08895,0,0,2.05172,-237.063,-1360.93)">
                <path d="M2702.92,1389.18L2706.83,1382.72C2706.91,1382.6 2707.07,1382.56 2707.2,1382.63L2707.66,1382.9C2707.79,1382.97 2707.83,1383.14 2707.76,1383.26L2703.39,1390.46C2703.31,1390.59 2703.15,1390.63 2703.02,1390.56L2702.56,1390.29C2702.49,1390.25 2702.45,1390.19 2702.43,1390.12L2699.93,1388.65C2699.8,1388.58 2699.76,1388.41 2699.83,1388.29L2700.11,1387.84C2700.18,1387.71 2700.35,1387.67 2700.47,1387.75L2702.92,1389.18Z" style="fill:white;"/>
                <path d="M2707.1,1382.6L2707.13,1382.6L2707.15,1382.61L2707.18,1382.62L2707.2,1382.63L2707.66,1382.9L2707.69,1382.91L2707.71,1382.93L2707.73,1382.95L2707.74,1382.97L2707.76,1382.99L2707.77,1383.01L2707.78,1383.04L2707.79,1383.06L2707.79,1383.09L2707.8,1383.11L2707.8,1383.14L2707.79,1383.16L2707.79,1383.19L2707.78,1383.21L2707.77,1383.24L2707.76,1383.26L2703.39,1390.46L2703.38,1390.49L2703.36,1390.51L2703.34,1390.53L2703.32,1390.54L2703.3,1390.56L2703.27,1390.57L2703.25,1390.58L2703.22,1390.59L2703.2,1390.59L2703.17,1390.59L2703.15,1390.59L2703.12,1390.59L2703.1,1390.59L2703.07,1390.58L2703.05,1390.57L2703.02,1390.56L2702.56,1390.29L2702.53,1390.27L2702.51,1390.26L2702.49,1390.24L2702.48,1390.21L2702.46,1390.19L2702.45,1390.17L2702.44,1390.14L2702.43,1390.12L2699.93,1388.65L2699.9,1388.63L2699.88,1388.62L2699.86,1388.6L2699.85,1388.58L2699.83,1388.56L2699.82,1388.54L2699.81,1388.51L2699.8,1388.49L2699.8,1388.46L2699.8,1388.44L2699.8,1388.41L2699.8,1388.39L2699.8,1388.36L2699.81,1388.34L2699.82,1388.31L2699.83,1388.29L2700.11,1387.84L2700.12,1387.82L2700.14,1387.8L2700.16,1387.78L2700.18,1387.76L2700.2,1387.75L2700.22,1387.74L2700.25,1387.73L2700.27,1387.72L2700.3,1387.71L2700.32,1387.71L2700.35,1387.71L2700.37,1387.71L2700.4,1387.72L2700.42,1387.73L2700.45,1387.74L2700.47,1387.75L2702.92,1389.18L2706.83,1382.72L2706.85,1382.7L2706.86,1382.68L2706.88,1382.66L2706.9,1382.65L2706.93,1382.63L2706.95,1382.62L2706.97,1382.61L2707,1382.6L2707.02,1382.6L2707.05,1382.59L2707.07,1382.59L2707.1,1382.6ZM2703.36,1389.8L2703.4,1389.85L2703.39,1389.83L2703.38,1389.8L2703.36,1389.8Z" style="fill:white;fill-opacity:0;"/>
            </g>
        </g>
    </g>
</svg>
