<?xml version="1.0" encoding="UTF-8" standalone="no"?>
<!DOCTYPE svg PUBLIC "-//W3C//DTD SVG 1.1//EN" "http://www.w3.org/Graphics/SVG/1.1/DTD/svg11.dtd">
<svg width="100%" height="100%" viewBox="0 0 12 11" version="1.1" xmlns="http://www.w3.org/2000/svg" xmlns:xlink="http://www.w3.org/1999/xlink" xml:space="preserve" xmlns:serif="http://www.serif.com/" style="fill-rule:evenodd;clip-rule:evenodd;stroke-linejoin:round;stroke-miterlimit:2;">
    <g transform="matrix(1,0,0,1,-3633,-479)">
        <g transform="matrix(1,0,0,1,264,34)">
            <g transform="matrix(0.99496,0,0,1.01353,2744.93,367.271)">
                <g transform="matrix(1.00507,0,0,0.98665,-2164.84,-364.341)">
                    <path d="M2781,450L2778,450L2778,447L2781,447L2781,450ZM2779,448L2779,449L2780,449L2780,448L2779,448Z" style="fill:white;"/>
                </g>
                <g transform="matrix(1.00507,0,0,0.98665,-2164.84,-360.394)">
                    <path d="M2781,450L2778,450L2778,447L2781,447L2781,450ZM2779,448L2779,449L2780,449L2780,448L2779,448Z" style="fill:white;"/>
                </g>
                <g transform="matrix(1.00507,0,0,0.98665,-2164.84,-356.448)">
                    <path d="M2781,450L2778,450L2778,447L2781,447L2781,450ZM2779,448L2779,449L2780,449L2780,448L2779,448Z" style="fill:white;"/>
                </g>
                <g transform="matrix(2.01013,0,0,0.98665,-7521.84,-20)">
                    <rect x="4056" y="98" width="4" height="1" style="fill:white;"/>
                    <rect x="4056" y="98" width="4" height="1" style="fill:white;"/>
                </g>
                <g transform="matrix(2.01013,0,0,0.98665,-7521.84,-10.1335)">
                    <rect x="4056" y="98" width="4" height="1" style="fill:white;"/>
                    <rect x="4056" y="98" width="4" height="1" style="fill:white;"/>
                </g>
                <g transform="matrix(2.01013,0,0,0.98665,-7521.84,-18.0267)">
                    <rect x="4056" y="98" width="4" height="1" style="fill:white;"/>
                    <rect x="4056" y="98" width="4" height="1" style="fill:white;"/>
                </g>
                <g transform="matrix(2.01013,0,0,0.98665,-7521.84,-16.0534)">
                    <rect x="4056" y="98" width="4" height="1" style="fill:white;"/>
                    <rect x="4056" y="98" width="4" height="1" style="fill:white;"/>
                </g>
                <g transform="matrix(2.01013,0,0,0.98665,-7521.84,-14.0801)">
                    <rect x="4056" y="98" width="4" height="1" style="fill:white;"/>
                    <rect x="4056" y="98" width="4" height="1" style="fill:white;"/>
                </g>
                <g transform="matrix(2.01013,0,0,0.98665,-7521.84,-12.1068)">
                    <rect x="4056" y="98" width="4" height="1" style="fill:white;"/>
                    <rect x="4056" y="98" width="4" height="1" style="fill:white;"/>
                </g>
            </g>
        </g>
    </g>
</svg>
