<svg width="16" height="16" viewBox="0 0 16 16" fill="none" xmlns="http://www.w3.org/2000/svg">
<path fill-rule="evenodd" clip-rule="evenodd" d="M8.4453 1.83216C7.98577 1.5258 7.8616 0.904935 8.16795 0.445406C8.4743 -0.0141226 9.09517 -0.138296 9.5547 0.168056L12.5361 2.15566C12.5977 2.1947 12.6555 2.24085 12.7082 2.29385C12.7784 2.36404 12.8364 2.44315 12.8818 2.52809C12.9127 2.58566 12.9381 2.64662 12.9573 2.71025C12.9862 2.80535 13.0002 2.90311 13.0001 3.00033C12.9999 3.16435 12.9595 3.32678 12.8818 3.47214C12.836 3.55787 12.7773 3.63766 12.7063 3.70833C12.654 3.76051 12.5969 3.806 12.5361 3.84456L9.5547 5.83216C9.09517 6.13851 8.4743 6.01434 8.16795 5.55481C7.8616 5.09528 7.98577 4.47441 8.4453 4.16806L8.69722 4.00011H4C3.44771 4.00011 3 3.55239 3 3.00011C3 2.44782 3.44771 2.00011 4 2.00011H8.69722L8.4453 1.83216Z" fill="white"/>
<mask id="path-2-inside-1" fill="white">
<rect y="8" width="16" height="8" rx="1"/>
</mask>
<rect y="8" width="16" height="8" rx="1" stroke="white" stroke-width="4" mask="url(#path-2-inside-1)"/>
<path d="M6 12H10" stroke="white" stroke-width="2" stroke-linecap="round"/>
</svg>
